<?xml version="1.0" encoding="utf-8"?>
<svg version="1.1" xmlns="http://www.w3.org/2000/svg" width="3200" height="2400">
  <path d="M0 0 C11.23366145 1.71280269 22.48220048 3.14306095 33.76953125 4.4453125 C34.5763352 4.5385165 35.38313915 4.6317205 36.21439171 4.72774887 C42.04589401 5.40000957 47.87833204 6.06395254 53.7109375 6.7265625 C91.32191563 11.00264953 91.32191563 11.00264953 108.12109375 13.2578125 C109.23286484 13.39771606 110.34463593 13.53761963 111.49009705 13.6817627 C126.44293933 15.767803 135.61529221 23.338422 145.89941406 33.82006836 C149.20585474 37.18822785 152.61803661 40.32831102 156.21484375 43.38671875 C158.83842502 45.73151339 161.30333561 48.22287092 163.7734375 50.7265625 C166.80628896 53.8006002 169.8528308 56.80655429 173.1484375 59.6015625 C177.45973414 63.27414852 181.39981673 67.29724701 185.35498047 71.34521484 C188.20010139 74.23621058 191.10566767 76.98507276 194.1796875 79.6328125 C199.14106704 83.92001415 203.68484449 88.58741103 208.2734375 93.265625 C211.45201295 96.48144938 214.6490844 99.59918816 218.0859375 102.5390625 C223.94575383 107.58628711 229.28421791 113.1803928 234.70996094 118.68359375 C239.83660776 123.87672951 244.96601299 129.00228393 250.55004883 133.7097168 C265.89516483 147.21576663 267.27273012 166.22382984 270.05859375 185.27734375 C270.31843372 187.03213549 270.57859463 188.78687974 270.83905029 190.5415802 C271.53410857 195.23471258 272.22277081 199.92875998 272.90930557 204.62314606 C273.33759656 207.5504017 273.76719476 210.47746292 274.19711304 213.40447998 C278.02346974 239.46952244 281.80074645 265.54215399 285.42892456 291.6355896 C285.86268676 294.7551409 286.30042132 297.87409172 286.74172974 300.99258423 C287.25819697 304.64590106 287.76482273 308.30045384 288.26392365 311.95618248 C288.53010704 313.89089181 288.80520317 315.82436867 289.08074951 317.75776672 C292.45245079 342.81503477 292.45245079 342.81503477 283.97021484 353.93505859 C281.30749712 357.32308538 278.5675815 360.64267216 275.8046875 363.94921875 C272.33364945 368.11541799 269.0403436 372.39947538 265.7734375 376.7265625 C260.97476732 383.05964908 256.04403833 389.26455924 251.01220703 395.41357422 C246.13099421 401.38179842 241.36159649 407.43233846 236.61621094 413.50878906 C234.34109832 416.41927858 232.05680707 419.32254957 229.7734375 422.2265625 C227.03289124 425.71307351 224.29334118 429.20034408 221.55859375 432.69140625 C216.32853243 439.36424311 211.0599345 446.00410486 205.75634766 452.61865234 C200.54932404 459.11859356 195.40854837 465.66976268 190.2734375 472.2265625 C184.14114468 480.0566206 177.97788092 487.85925698 171.75634766 495.61865234 C167.00841517 501.5455089 162.31537035 507.51449842 157.63232422 513.49267578 C154.88995221 516.99183604 152.1417048 520.48638605 149.39379883 523.98120117 C147.12309355 526.86976355 144.85521765 529.76044811 142.59375 532.65625 C137.15334398 539.61463306 131.62689614 546.4945014 126.03955078 553.33544922 C121.879375 558.44398208 117.86157142 563.6434258 113.8671875 568.8828125 C110.37105574 573.42778379 106.71962088 577.84689048 103.08984375 582.28515625 C99.74737254 586.38263272 96.47938249 590.52136192 93.2734375 594.7265625 C89.52975576 599.63710608 85.68242801 604.44676569 81.7734375 609.2265625 C77.84730987 614.02833004 73.97160854 618.85647207 70.2109375 623.7890625 C66.15063082 629.11082369 61.99790979 634.34934604 57.80664062 639.56835938 C54.41778584 643.79032571 51.05261698 648.02966092 47.7109375 652.2890625 C47.25968506 652.86406494 46.80843262 653.43906738 46.34350586 654.03149414 C44.09179384 656.9026992 41.84361215 659.77663461 39.59765625 662.65234375 C34.69805084 668.91729638 29.74208177 675.12909341 24.7109375 681.2890625 C19.82982878 687.26544439 15.06828442 693.31731166 10.39453125 699.45703125 C8.38865547 702.07612136 6.34393746 704.65839135 4.2734375 707.2265625 C1.12647913 706.62061024 -0.86529974 705.6157134 -3.40625 703.6796875 C-4.08816406 703.1640625 -4.77007813 702.6484375 -5.47265625 702.1171875 C-6.52646484 701.30507812 -6.52646484 701.30507812 -7.6015625 700.4765625 C-8.29636719 699.950625 -8.99117187 699.4246875 -9.70703125 698.8828125 C-13.80410237 695.76564351 -17.79721951 692.55233869 -21.7265625 689.2265625 C-21.3000949 682.40308096 -15.84154341 677.42306976 -11.4140625 672.6640625 C-8.5232711 669.30799861 -7.56160522 666.76288778 -7.7265625 662.2265625 C-9.52089903 658.82378438 -9.52089903 658.82378438 -11.7265625 656.2265625 C-17.96019768 656.77009472 -23.11494192 658.8031157 -28.8515625 661.2265625 C-30.60248957 661.95974719 -32.35504946 662.68904712 -34.109375 663.4140625 C-34.87652832 663.73761719 -35.64368164 664.06117188 -36.43408203 664.39453125 C-38.87125599 665.27907745 -41.15630935 665.88047329 -43.7265625 666.2265625 C-45.82038962 664.80575124 -46.55452137 663.71825401 -47.38671875 661.33984375 C-48.01797579 657.41444078 -45.87410264 654.34535196 -43.7265625 651.2265625 C-41.36445877 648.71206498 -38.89647799 646.34031508 -36.40234375 643.95703125 C-30.12391651 637.55028579 -22.46799283 629.42351095 -22.55078125 620.27539062 C-22.56753906 619.53740234 -22.58429688 618.79941406 -22.6015625 618.0390625 C-22.61509766 616.91467773 -22.61509766 616.91467773 -22.62890625 615.76757812 C-22.65243672 613.92043596 -22.68830689 612.07345838 -22.7265625 610.2265625 C-34.40255127 610.97183838 -39.92477268 615.10957425 -47.51171875 623.4921875 C-48.58943274 624.73170219 -49.66132374 625.97631033 -50.7265625 627.2265625 C-51.20593262 627.78666016 -51.68530273 628.34675781 -52.17919922 628.92382812 C-54.18298708 631.28767725 -56.13823645 633.68199782 -58.0546875 636.1171875 C-59.7265625 638.2265625 -59.7265625 638.2265625 -61.7265625 640.2265625 C-65.3515625 640.3515625 -65.3515625 640.3515625 -68.7265625 640.2265625 C-69.99503747 637.68961257 -69.9301049 635.81047613 -69.9765625 632.9765625 C-70.00234375 632.04328125 -70.028125 631.11 -70.0546875 630.1484375 C-69.32116401 623.61658543 -65.29033067 619.20885596 -61.1015625 614.4765625 C-60.56740723 613.86240479 -60.03325195 613.24824707 -59.48291016 612.61547852 C-56.40367827 609.08694236 -53.26587496 605.61655342 -50.1015625 602.1640625 C-46.66428363 598.36860284 -43.43551582 594.45081779 -40.2890625 590.4140625 C-39.86351074 589.87450928 -39.43795898 589.33495605 -38.99951172 588.77905273 C-34.8384352 583.35752871 -33.51287566 579.2007296 -33.1015625 572.4140625 C-33.02679687 571.25261719 -32.95203125 570.09117187 -32.875 568.89453125 C-32.82601563 568.01410156 -32.77703125 567.13367187 -32.7265625 566.2265625 C-42.11632589 567.51031921 -49.23379289 568.81223849 -55.7265625 576.2265625 C-56.43941406 576.98324219 -57.15226562 577.73992188 -57.88671875 578.51953125 C-62.54366169 583.54391737 -66.87139609 588.8170696 -71.18359375 594.13671875 C-74.28220786 597.927563 -77.4685208 601.64235728 -80.6640625 605.3515625 C-81.2322168 606.01567139 -81.80037109 606.67978027 -82.38574219 607.36401367 C-83.1867334 608.28984253 -83.1867334 608.28984253 -84.00390625 609.234375 C-84.48077881 609.78754395 -84.95765137 610.34071289 -85.44897461 610.91064453 C-86.7265625 612.2265625 -86.7265625 612.2265625 -88.7265625 613.2265625 C-96.25594966 608.54427846 -96.25594966 608.54427846 -97.9765625 603.7265625 C-97.47435802 596.69569984 -91.70310409 591.85200719 -87.0390625 586.9765625 C-85.78066675 585.64377962 -84.5228541 584.31044595 -83.265625 582.9765625 C-82.65750977 582.33332031 -82.04939453 581.69007813 -81.42285156 581.02734375 C-75.38448866 574.61701491 -69.65629958 568.00729825 -64.125 561.15625 C-61.93235524 558.477938 -59.69353634 555.85099648 -57.43066406 553.23242188 C-55.16251452 550.5910711 -52.94499332 547.90980739 -50.7265625 545.2265625 C-50.14132812 544.55367187 -49.55609375 543.88078125 -48.953125 543.1875 C-44.16899345 536.91005571 -44.82756712 528.79272666 -44.7265625 521.2265625 C-53.73273166 523.26306985 -60.37611207 525.27606951 -66.7265625 532.2265625 C-67.58765625 533.12890625 -68.44875 534.03125 -69.3359375 534.9609375 C-74.63645327 540.57487989 -79.57386914 546.42964361 -84.4140625 552.4453125 C-86.92627876 555.46676178 -89.55065234 558.35089544 -92.2265625 561.2265625 C-95.79735334 565.06576845 -99.22705597 568.9700259 -102.5390625 573.0390625 C-103.62574219 574.37130859 -103.62574219 574.37130859 -104.734375 575.73046875 C-105.98661596 577.29945302 -107.2146819 578.8883616 -108.40625 580.50390625 C-109.9140625 582.4765625 -109.9140625 582.4765625 -112.7265625 585.2265625 C-116.00786784 585.2265625 -117.83093888 584.67437431 -120.7265625 583.2265625 C-121.06201602 574.00159081 -120.62716454 567.89584271 -114.1640625 560.8515625 C-113.26429688 559.92472656 -112.36453125 558.99789062 -111.4375 558.04296875 C-108.8855194 555.3917036 -106.58154849 552.66501514 -104.2890625 549.7890625 C-100.63085235 545.25339807 -96.77913285 540.9695508 -92.81274414 536.70727539 C-89.8222925 533.47462275 -86.98877243 530.15959484 -84.2265625 526.7265625 C-80.59734098 522.21595861 -76.77644419 517.95670289 -72.82788086 513.72900391 C-68.87444841 509.46717728 -65.26239083 505.00174297 -61.69921875 500.40625 C-59.76131391 498.26496109 -58.31951817 497.38333367 -55.7265625 496.2265625 C-54.60140165 494.39371807 -54.60140165 494.39371807 -53.7265625 492.2265625 C-53.1490625 491.4634375 -52.5715625 490.7003125 -51.9765625 489.9140625 C-50.4050458 487.17212157 -50.4050458 487.17212157 -51.2265625 483.6640625 C-53.14128231 479.27616295 -55.50391118 477.33788816 -59.7265625 475.2265625 C-63.89416284 474.94872248 -67.04240093 475.17980607 -70.7265625 477.2265625 C-71.41582436 478.54835685 -72.07921723 479.88374221 -72.7265625 481.2265625 C-77.49896947 488.02162394 -83.12584291 494.11668659 -88.7265625 500.2265625 C-93.34082435 505.27191456 -97.86531439 510.34540051 -102.1640625 515.6640625 C-106.02481387 520.4379655 -110.10093325 524.96044678 -114.2578125 529.4765625 C-117.44617628 533.0281576 -120.4235092 536.73026108 -123.41796875 540.4453125 C-126.69734745 544.39610376 -130.16663461 548.15264953 -133.66015625 551.9140625 C-135.84025887 554.24458941 -135.84025887 554.24458941 -137.7265625 557.2265625 C-141.89980652 557.03245813 -143.49788858 556.4309094 -146.6640625 553.6015625 C-148.7265625 550.2265625 -148.7265625 550.2265625 -149.0390625 546.9765625 C-145.99529712 538.28008999 -138.42964295 531.74591458 -132.22363281 525.11694336 C-128.28017154 520.88870412 -124.62333503 516.48221579 -121.00390625 511.97265625 C-118.50829703 508.96337103 -115.88889445 506.08719228 -113.2265625 503.2265625 C-108.93695843 498.61657307 -104.92245128 493.84872734 -100.97265625 488.94140625 C-97.84371429 485.15946771 -94.51138805 481.5790038 -91.1875 477.96875 C-88.81616355 475.32640367 -86.57403253 472.61962083 -84.3515625 469.8515625 C-80.32106567 464.84594547 -76.03169656 460.13666725 -71.62353516 455.46533203 C-66.90514603 450.44402634 -66.49795838 447.34516449 -66.1640625 440.6015625 C-66.12087891 439.79976562 -66.07769531 438.99796875 -66.03320312 438.171875 C-65.92704793 436.1903114 -65.82629395 434.20845979 -65.7265625 432.2265625 C-66.3865625 432.5565625 -67.0465625 432.8865625 -67.7265625 433.2265625 C-68.57863281 433.24074219 -69.43070313 433.25492188 -70.30859375 433.26953125 C-77.18726137 433.57728301 -81.22805935 435.05710807 -85.93115234 439.96679688 C-88.61091846 442.99044411 -91.18459565 446.08691719 -93.7265625 449.2265625 C-94.948798 450.62846898 -96.17643928 452.0257217 -97.4140625 453.4140625 C-97.93613281 454.01992187 -98.45820312 454.62578125 -98.99609375 455.25 C-101.15693457 457.71813873 -103.38093952 460.12460259 -105.6015625 462.5390625 C-109.72562926 467.05560087 -113.60593115 471.71789266 -117.4453125 476.4765625 C-120.59086209 480.2684579 -123.93301812 483.86475623 -127.26953125 487.48828125 C-129.62032383 490.10816296 -131.83906709 492.79208469 -134.0390625 495.5390625 C-138.66728661 501.27707392 -143.6673936 506.61905536 -148.70703125 511.9921875 C-152.14167654 515.65665641 -155.46234143 519.409804 -158.7265625 523.2265625 C-159.5928125 524.23396484 -159.5928125 524.23396484 -160.4765625 525.26171875 C-161.89592454 526.91435557 -163.31166729 528.57009982 -164.7265625 530.2265625 C-167.65357083 528.91769274 -169.59840565 527.56430162 -171.7421875 525.1875 C-172.27070312 524.60742188 -172.79921875 524.02734375 -173.34375 523.4296875 C-173.88257813 522.82640625 -174.42140625 522.223125 -174.9765625 521.6015625 C-175.53085938 520.99054687 -176.08515625 520.37953125 -176.65625 519.75 C-178.0183466 518.24699685 -179.37317851 516.7374157 -180.7265625 515.2265625 C-176.61666413 509.47140857 -172.09590425 504.27853974 -167.30078125 499.08203125 C-164.84817091 496.36145742 -162.52479329 493.57799574 -160.2265625 490.7265625 C-156.38820836 485.96916582 -152.33033891 481.46872332 -148.19140625 476.97265625 C-145.79948953 474.30781084 -143.53401366 471.57824425 -141.2890625 468.7890625 C-137.63085235 464.25339807 -133.77913285 459.9695508 -129.81274414 455.70727539 C-126.8222925 452.47462275 -123.98877243 449.15959484 -121.2265625 445.7265625 C-117.59156861 441.20878437 -113.7594596 436.94837734 -109.8125 432.70703125 C-106.03943266 428.62832437 -102.54146338 424.3672164 -99.06640625 420.03125 C-95.98212249 416.33422873 -92.70666619 412.82925458 -89.35546875 409.37304688 C-86.63895933 406.50254927 -84.92756102 404.00112926 -83.7265625 400.2265625 C-86.97962711 398.25091717 -88.89512532 398.08431838 -92.62426758 398.6862793 C-94.08277885 398.9122303 -94.08277885 398.9122303 -95.570755 399.14274597 C-96.61861679 399.31864761 -97.66647858 399.49454926 -98.74609375 399.67578125 C-100.38223885 399.9357061 -100.38223885 399.9357061 -102.05143738 400.20088196 C-105.54935494 400.75999432 -109.04404405 401.33713534 -112.5390625 401.9140625 C-114.85073412 402.28431203 -117.16258171 402.65346468 -119.47460938 403.02148438 C-124.94307077 403.89744136 -130.40500577 404.80699236 -135.8638916 405.74069214 C-138.42846028 406.17596673 -140.99538114 406.59231998 -143.56347656 407.00610352 C-144.91110188 407.23935253 -146.25846315 407.4741359 -147.60546875 407.7109375 C-148.71349854 407.8975293 -149.82152832 408.08412109 -150.96313477 408.27636719 C-155.98124996 410.00182918 -158.04789716 413.97854082 -160.60693359 418.39550781 C-162.89631344 422.13958737 -165.57221788 425.62620567 -168.1640625 429.1640625 C-169.29371129 430.72472321 -170.42262846 432.28591378 -171.55078125 433.84765625 C-172.60908358 435.30750297 -173.66765661 436.76715352 -174.7265625 438.2265625 C-175.16178223 438.82742676 -175.59700195 439.42829102 -176.04541016 440.04736328 C-192.03468279 462.04480506 -192.03468279 462.04480506 -202.2890625 466.4140625 C-203.03285156 466.73761719 -203.77664063 467.06117188 -204.54296875 467.39453125 C-211.00759615 469.85779715 -218.3655215 470.42910869 -225.078125 468.578125 C-230.7416859 466.01968243 -235.30150612 461.90177266 -237.57495117 456.03857422 C-239.36464306 449.9001512 -240.66317802 443.77884328 -241.7265625 437.4765625 C-242.80145306 431.249682 -243.9575843 425.10979525 -245.4765625 418.9765625 C-247.31989173 410.78620235 -246.98191366 402.5680337 -246.7265625 394.2265625 C-246.27925781 394.62488281 -245.83195312 395.02320313 -245.37109375 395.43359375 C-237.7589615 402.15569215 -237.7589615 402.15569215 -227.98046875 403.61328125 C-220.52391708 402.33390757 -216.81256808 395.89401361 -212.63134766 390.24291992 C-207.33603619 383.18217197 -200.84140732 377.80760618 -193.8515625 372.4765625 C-188.16227907 368.10943649 -185.31376612 363.82393174 -182.7265625 357.2265625 C-190.03174945 355.53985686 -197.36972981 354.15946427 -204.75 352.84375 C-205.97312897 352.62461945 -207.19625793 352.40548889 -208.45645142 352.17971802 C-211.0262976 351.71992772 -213.59631843 351.26111257 -216.16650391 350.80322266 C-218.80092239 350.33347959 -221.43508521 349.86254353 -224.06884766 349.38916016 C-227.87875746 348.70467431 -231.68927703 348.02369245 -235.5 347.34375 C-237.27182144 347.02505447 -237.27182144 347.02505447 -239.07943726 346.69992065 C-240.17132355 346.50616852 -241.26320984 346.31241638 -242.38818359 346.11279297 C-243.3492099 345.94117645 -244.31023621 345.76955994 -245.30038452 345.59274292 C-247.81202044 345.15194315 -247.81202044 345.15194315 -250.7265625 345.2265625 C-252.47292731 347.67628249 -254.01813681 350.07934811 -255.5390625 352.6640625 C-256.42737031 354.13212513 -257.31668909 355.59957651 -258.20703125 357.06640625 C-258.85164307 358.13737549 -258.85164307 358.13737549 -259.50927734 359.22998047 C-261.79318848 362.97603448 -264.25176807 366.60491212 -266.7265625 370.2265625 C-269.53069802 367.82527462 -270.38164862 365.69387898 -271.5390625 362.2265625 C-276.74987934 349.23911627 -286.65487837 336.69693832 -297.7265625 328.2265625 C-309.65175356 318.51311815 -319.07170753 306.33697547 -321.4765625 290.73046875 C-322.6239196 279.2389703 -321.92652152 265.44337642 -314.9765625 255.6640625 C-313.40625 253.87890625 -313.40625 253.87890625 -311.7265625 252.2265625 C-311.15164063 251.65035156 -310.57671875 251.07414062 -309.984375 250.48046875 C-306.38751935 247.12987085 -302.50802972 244.3510334 -298.40625 241.65234375 C-293.69978763 238.53784675 -289.00910504 235.40252159 -284.3359375 232.23828125 C-283.70136627 231.80872635 -283.06679504 231.37917145 -282.41299438 230.93659973 C-280.43382472 229.59628303 -278.45512177 228.25528008 -276.4765625 226.9140625 C-275.79070068 226.44924469 -275.10483887 225.98442688 -274.39819336 225.50552368 C-260.5988658 216.15223159 -260.5988658 216.15223159 -246.86474609 206.70361328 C-244.19463283 204.85910709 -241.51672526 203.02607524 -238.83984375 201.19140625 C-236.73939259 199.74506864 -234.63913193 198.29845432 -232.5390625 196.8515625 C-231.54519531 196.17246826 -230.55132813 195.49337402 -229.52734375 194.79370117 C-219.57295031 187.91330784 -213.43740429 181.47081576 -209.9765625 169.7890625 C-205.30557244 155.12422173 -198.73080858 143.97637515 -187.7265625 133.2265625 C-187.02015625 132.49953125 -186.31375 131.7725 -185.5859375 131.0234375 C-172.18576452 118.03243011 -153.42972737 112.26642168 -136.43386841 105.52755737 C-130.12383167 103.01252528 -123.91875748 100.28452701 -117.76416016 97.40991211 C-114.88303406 96.08220591 -112.94307932 95.2265625 -109.7265625 95.2265625 C-110.0565625 94.5665625 -110.3865625 93.9065625 -110.7265625 93.2265625 C-110.7665545 91.22696238 -110.77003049 89.22609008 -110.7265625 87.2265625 C-111.5088623 87.13882568 -112.29116211 87.05108887 -113.09716797 86.96069336 C-117.89463463 85.99029229 -122.24890495 84.26425371 -126.796875 82.48046875 C-127.7555246 82.10929428 -128.71417419 81.73811981 -129.70187378 81.35569763 C-131.72172703 80.57242019 -133.74051737 79.78639694 -135.75830078 78.99780273 C-138.84568358 77.79135978 -141.93617881 76.59319908 -145.02734375 75.39648438 C-146.99237437 74.63329348 -148.95722441 73.86963741 -150.921875 73.10546875 C-152.30634323 72.56787682 -152.30634323 72.56787682 -153.71878052 72.01942444 C-155.01064774 71.51396339 -155.01064774 71.51396339 -156.32861328 70.99829102 C-157.08328888 70.70374527 -157.83796448 70.40919952 -158.61550903 70.10572815 C-160.70620205 69.23504178 -162.71409311 68.26394777 -164.7265625 67.2265625 C-161.1502937 63.02540802 -156.81410658 60.97752278 -151.9765625 58.5390625 C-150.23865888 57.64371921 -148.50169092 56.74655763 -146.765625 55.84765625 C-145.90485352 55.40276855 -145.04408203 54.95788086 -144.15722656 54.49951172 C-140.84937488 52.76717557 -137.59598234 50.94929916 -134.3515625 49.1015625 C-106.89225936 33.52926578 -79.21310557 18.16592978 -50.8515625 4.2890625 C-49.86639648 3.79889648 -48.88123047 3.30873047 -47.86621094 2.80371094 C-32.05897059 -4.79055382 -16.80087514 -2.64307379 0 0 Z " fill="#080042" transform="translate(1612.7265625,851.7734375)"/>
  <path d="M0 0 C0.94441074 0.00011959 1.88882149 0.00023918 2.86185074 0.0003624 C31.10301944 0.00488823 59.27566269 0.20545952 87.46844482 2.02929688 C89.99829872 2.19139564 92.5285689 2.34465713 95.05908203 2.49609375 C198.46029952 8.74503254 300.48435195 25.86045189 513.9375 91.1875 C514.59935303 91.44084106 515.26120605 91.69418213 515.94311523 91.9552002 C548.08941302 104.28170324 579.70716711 117.70109773 610.9375 132.1875 C611.65607178 132.52068237 612.37464355 132.85386475 613.11499023 133.19714355 C638.5029909 144.97808892 663.62759623 157.10831905 688.13378906 170.64892578 C691.01499143 172.23002447 693.90756651 173.78812168 696.8046875 175.33984375 C709.95415433 182.38623233 722.90609966 189.7110511 735.74707031 197.3046875 C738.55865356 198.9639261 741.37499504 200.61453391 744.19381714 202.26141357 C769.79042209 217.22176022 769.79042209 217.22176022 778.9375 224.1875 C779.71738281 224.77402344 780.49726563 225.36054687 781.30078125 225.96484375 C787.62803105 231.06597202 791.61610884 237.11474558 792.9375 245.1875 C794.23796416 263.05097468 791.26356185 281.02172027 789.14166331 298.72178435 C788.57424981 303.4772195 788.0201826 308.23421213 787.46461487 312.99104309 C786.48763969 321.3423784 785.50328514 329.69281639 784.51419067 338.04272461 C782.89670316 351.70086183 781.29606245 365.36094849 779.69897461 379.02148438 C779.49237813 380.78843418 779.49237813 380.78843418 779.28160799 382.59107995 C778.7151787 387.43587439 778.14882327 392.28067744 777.58267397 397.12550461 C776.70290645 404.65401003 775.82210203 412.18239328 774.94060057 419.71069586 C770.35980424 458.83806793 765.84809562 497.97302003 761.37890625 537.11328125 C761.29928036 537.81058785 761.21965447 538.50789446 761.13761568 539.22633156 C759.17279637 556.43315661 757.21037233 573.64025452 755.24890175 590.84746159 C752.12180118 618.28005113 748.98951816 645.7120495 745.85689926 673.14400935 C745.51204314 676.16388114 745.16720787 679.18375531 744.82239151 682.20363164 C736.00163032 759.45486934 727.12651436 836.69985037 709.6110242 988.89878134 C708.89999399 995.07395609 708.18899791 1001.24913478 707.47802734 1007.42431641 C707.40151908 1008.08883095 707.32501081 1008.7533455 707.24618411 1009.43799685 C704.53872181 1032.95406936 701.83683044 1056.47077833 699.1375227 1079.98778808 C697.7769564 1091.8403895 696.41423424 1103.6927431 695.0510025 1115.54503822 C694.14651461 1123.40952194 693.2429203 1131.27410515 692.34234619 1139.13903809 C690.39225827 1156.16589817 688.42056323 1173.19003231 686.40724945 1190.20955658 C686.08118658 1192.96771722 685.75673106 1195.72606161 685.43332672 1198.48453522 C684.47130589 1206.68804874 683.49984355 1214.89028876 682.50514108 1223.08991081 C682.07400392 1226.64481166 681.64696704 1230.20006503 681.23162651 1233.75684929 C680.77540374 1237.66087171 680.29702929 1241.56200737 679.81665039 1245.46313477 C679.68594965 1246.60775492 679.55524891 1247.75237507 679.42058754 1248.93168068 C677.95864785 1260.48930999 674.45058615 1271.09580853 665.13085938 1278.65234375 C660.62521755 1282.09052143 655.98312426 1285.32942791 651.31738281 1288.54541016 C648.36946947 1290.57943407 645.44467218 1292.64498431 642.52099609 1294.71362305 C641.12673768 1295.69992936 639.73121825 1296.68445538 638.33447266 1297.66723633 C633.17247716 1301.30017085 628.04886021 1304.98374329 622.9375 1308.6875 C616.43691517 1313.39790657 609.8988612 1318.05047608 603.33203125 1322.66796875 C598.1718328 1326.30204566 593.0482106 1329.98421401 587.9375 1333.6875 C581.43691517 1338.39790657 574.8988612 1343.05047608 568.33203125 1347.66796875 C563.1718328 1351.30204566 558.0482106 1354.98421401 552.9375 1358.6875 C546.43691517 1363.39790657 539.8988612 1368.05047608 533.33203125 1372.66796875 C528.1718328 1376.30204566 523.0482106 1379.98421401 517.9375 1383.6875 C511.43691517 1388.39790657 504.8988612 1393.05047608 498.33203125 1397.66796875 C493.1718313 1401.30204672 488.04828334 1404.98431272 482.9375 1408.6875 C473.62774511 1415.43098241 464.23697664 1422.05584937 454.83300781 1428.66699219 C446.06871284 1434.8308473 437.34474456 1441.04491881 428.66821289 1447.33178711 C422.92176483 1451.49044164 417.13447315 1455.58795858 411.33203125 1459.66796875 C406.1718328 1463.30204566 401.0482106 1466.98421401 395.9375 1470.6875 C389.43561213 1475.39885076 382.89710188 1480.05360019 376.32763672 1484.67016602 C371.20530058 1488.2758889 366.12912055 1491.94153712 361.0625 1495.625 C354.88591239 1500.11298069 348.63404921 1504.46891847 342.3125 1508.75 C335.7266414 1513.21196924 329.32065223 1517.8453051 322.99560547 1522.66821289 C317.1400759 1527.10388934 311.08910999 1531.21987912 305.00390625 1535.33203125 C299.87215805 1538.81696236 294.86989497 1542.42650233 289.9375 1546.1875 C283.48528639 1551.10397343 276.86159273 1555.71230494 270.14672852 1560.26171875 C262.37522066 1565.53852311 254.76838086 1571.02820641 247.17578125 1576.55810547 C243.41433484 1579.29631373 239.6454078 1582.02414926 235.875 1584.75 C235.12984131 1585.28882813 234.38468262 1585.82765625 233.61694336 1586.3828125 C227.88478518 1590.5203851 222.11457224 1594.60182543 216.33178711 1598.66821289 C211.17159655 1602.30210792 206.04819125 1605.98437944 200.9375 1609.6875 C191.62774511 1616.43098241 182.23697664 1623.05584937 172.83300781 1629.66699219 C164.06871284 1635.8308473 155.34474456 1642.04491881 146.66821289 1648.33178711 C140.92176483 1652.49044164 135.13447315 1656.58795858 129.33203125 1660.66796875 C124.1718328 1664.30204566 119.0482106 1667.98421401 113.9375 1671.6875 C107.43691517 1676.39790657 100.8988612 1681.05047608 94.33203125 1685.66796875 C89.1718313 1689.30204672 84.04828334 1692.98431272 78.9375 1696.6875 C71.72603203 1701.91109697 64.47434043 1707.07354141 57.1875 1712.19140625 C54.23712835 1714.26502945 51.3020981 1716.35850296 48.375 1718.46484375 C47.62162354 1719.00423584 46.86824707 1719.54362793 46.09204102 1720.09936523 C44.66482057 1721.1217272 43.24057555 1722.14826235 41.82006836 1723.17993164 C34.77255803 1728.21163332 28.59188902 1732.09255359 19.703125 1731.6796875 C14.62397307 1730.77577063 11.0726515 1728.15946622 6.9375 1725.1875 C5.6689749 1724.30324236 4.39935813 1723.42054961 3.12890625 1722.5390625 C-0.54234471 1719.97833382 -4.18779627 1717.38285403 -7.82910156 1714.77978516 C-10.67770353 1712.74889512 -13.53946531 1710.73707489 -16.40161133 1708.7253418 C-22.95261624 1704.11944038 -29.45933964 1699.45773582 -35.9375 1694.75 C-42.13787574 1690.24657629 -48.40963637 1685.86641669 -54.75 1681.5625 C-61.02777788 1677.30088264 -67.20345555 1672.93824853 -73.29638672 1668.41699219 C-79.26542887 1664.00171028 -85.35390872 1659.76396036 -91.44677734 1655.52197266 C-97.04978385 1651.61445871 -102.60198899 1647.6446126 -108.125 1643.625 C-114.26192511 1639.16153537 -120.47142255 1634.8242688 -126.75 1630.5625 C-133.02778788 1626.30089899 -139.20345642 1621.93824789 -145.29638672 1617.41699219 C-150.42569145 1613.62286143 -155.63954323 1609.95839881 -160.875 1606.3125 C-167.31370154 1601.82806622 -173.71390805 1597.29864919 -180.0625 1592.6875 C-187.18484101 1587.51548301 -194.37717058 1582.45158427 -201.59936523 1577.42016602 C-207.15070441 1573.54567632 -212.65105424 1569.60791054 -218.125 1565.625 C-224.26198557 1561.16161462 -230.47142978 1556.8242868 -236.75 1552.5625 C-243.0962224 1548.2542321 -249.34181769 1543.84413202 -255.50512695 1539.27856445 C-262.93132063 1533.78375797 -270.50265641 1528.49602251 -278.0625 1523.1875 C-280.87621247 1521.21005116 -283.68872268 1519.2309093 -286.5 1517.25 C-287.19996094 1516.75693359 -287.89992188 1516.26386719 -288.62109375 1515.75585938 C-293.75754743 1512.1292973 -298.85111515 1508.44632038 -303.9375 1504.75 C-310.13787574 1500.24657629 -316.40963637 1495.86641669 -322.75 1491.5625 C-329.02777788 1487.30088264 -335.20345555 1482.93824853 -341.29638672 1478.41699219 C-347.26542887 1474.00171028 -353.35390872 1469.76396036 -359.44677734 1465.52197266 C-365.04978545 1461.61445759 -370.60193527 1457.64454011 -376.125 1453.625 C-382.20160764 1449.20650027 -388.34668264 1444.90779617 -394.5625 1440.6875 C-401.60599086 1435.90503373 -408.54434696 1430.99912895 -415.43139648 1425.99438477 C-420.46986989 1422.33350251 -425.53336588 1418.71158199 -430.625 1415.125 C-431.32326904 1414.63306152 -432.02153809 1414.14112305 -432.7409668 1413.63427734 C-434.84759282 1412.15123212 -436.95490768 1410.66917163 -439.0625 1409.1875 C-441.87591205 1407.20962564 -444.68856695 1405.23068654 -447.5 1403.25 C-448.20020264 1402.75677246 -448.90040527 1402.26354492 -449.62182617 1401.75537109 C-454.75800721 1398.12893204 -459.8513525 1394.4461479 -464.9375 1390.75 C-471.13787641 1386.2465758 -477.40964668 1381.86643295 -483.75 1377.5625 C-490.0970408 1373.253653 -496.3441097 1368.84379367 -502.50732422 1364.27636719 C-507.78685747 1360.36863666 -513.14495089 1356.58029734 -518.52050781 1352.80615234 C-523.69455092 1349.16797079 -528.82192932 1345.46980647 -533.9375 1341.75 C-540.13772799 1337.24637862 -546.40965397 1332.86642801 -552.75 1328.5625 C-559.0962122 1324.25421551 -565.34181683 1319.84413267 -571.50512695 1315.27856445 C-576.10661881 1311.8738179 -580.75694149 1308.5451473 -585.4375 1305.25 C-586.14519531 1304.75177734 -586.85289062 1304.25355469 -587.58203125 1303.74023438 C-589.74144229 1302.22159231 -591.90178535 1300.70428662 -594.0625 1299.1875 C-599.04435141 1295.69032117 -604.02150466 1292.18687899 -608.98388672 1288.66210938 C-610.37692337 1287.67386162 -611.77180378 1286.68820803 -613.16845703 1285.70507812 C-615.20226972 1284.27079018 -617.22700968 1282.82449855 -619.25 1281.375 C-619.8495752 1280.95532959 -620.44915039 1280.53565918 -621.06689453 1280.10327148 C-630.05180952 1273.60795317 -635.65315804 1265.3262403 -637.82330322 1254.33380318 C-638.50735943 1249.66735977 -638.97502856 1244.97864945 -639.45117188 1240.28735352 C-639.65254889 1238.44494887 -639.85577615 1236.6027457 -640.06066132 1234.76072788 C-640.50649637 1230.72732787 -640.94161687 1226.69295746 -641.36947632 1222.65761185 C-642.07757531 1216.00433012 -642.82480192 1209.35575442 -643.57836914 1202.70748901 C-644.71869482 1192.63044366 -645.84920888 1182.55236461 -646.96878052 1172.47299194 C-647.04365791 1171.79895904 -647.1185353 1171.12492614 -647.19568171 1170.43046799 C-647.5051595 1167.64436808 -647.81457746 1164.85826154 -648.12389591 1162.07214393 C-648.69577168 1156.92119042 -649.26839348 1151.77032024 -649.84142685 1146.61949539 C-649.92555034 1145.86332234 -650.00967382 1145.10714928 -650.0963465 1144.32806189 C-650.26826842 1142.78268934 -650.44019065 1141.23731682 -650.61211319 1139.69194433 C-652.35191051 1124.05227239 -654.08907273 1108.4123084 -655.82530558 1092.7722404 C-657.08754162 1081.40202809 -658.35042205 1070.03188754 -659.61373837 1058.66179521 C-669.56115823 969.13141308 -679.46079878 879.59581931 -689.31017172 790.05459735 C-689.68008698 786.69168082 -690.05001646 783.32876585 -690.41994762 779.96585107 C-695.2538094 736.02223617 -700.08478988 692.07830519 -704.90847898 648.1335724 C-707.38300285 625.59020799 -709.85863724 603.04696574 -712.3359375 580.50390625 C-712.50001474 579.01077591 -712.50001474 579.01077591 -712.66740668 577.48748133 C-719.98120949 510.93286584 -727.36623403 444.38633452 -734.80038553 377.84505591 C-735.16202655 374.60806719 -735.52362727 371.37107396 -735.88522291 368.13408017 C-737.35795257 354.95089269 -738.83180416 341.76783105 -740.30681723 328.58489886 C-740.6123833 325.85358355 -740.91783055 323.12225498 -741.22324991 320.39092326 C-741.70056411 316.12266601 -742.17843979 311.85447187 -742.65657711 307.58630675 C-742.92804251 305.16128138 -743.19884365 302.73618246 -743.4696064 300.31107855 C-744.36618884 292.29523599 -745.28227105 284.28212639 -746.2268486 276.27179146 C-746.50792699 273.87246192 -746.78868858 271.47309548 -747.06939165 269.07372201 C-747.331274 266.85051879 -747.59879747 264.62804513 -747.86659491 262.40554804 C-750.29781068 241.88192897 -750.29781068 241.88192897 -746.0625 234.1875 C-741.57564863 228.99219842 -736.13863316 225.11115826 -730.29296875 221.5703125 C-729.16898682 220.88799561 -728.04500488 220.20567871 -726.88696289 219.50268555 C-725.67479554 218.77236868 -724.46247071 218.04231313 -723.25 217.3125 C-721.991421 216.55189557 -720.73287654 215.791234 -719.47436523 215.03051758 C-707.7458445 207.95338237 -695.93168581 201.02599623 -684.0625 194.1875 C-683.18078125 193.67912598 -682.2990625 193.17075195 -681.390625 192.64697266 C-676.18454187 189.64938325 -670.96680665 186.67301864 -665.74072266 183.71044922 C-663.03416451 182.17138726 -660.33543714 180.61916591 -657.63671875 179.06640625 C-581.4926493 135.54342203 -500.07392515 100.78227618 -238.60162354 24.69464111 C-236.09867777 24.19472581 -233.59682734 23.68964637 -231.09521484 23.18310547 C-176.07935251 12.06856376 -120.14555068 4.13642852 -64.0625 1.1875 C-63.36410004 1.14619965 -62.66570007 1.10489929 -61.94613647 1.06234741 C-41.3154532 -0.14230673 -20.65753063 -0.01156632 0 0 Z M-233.50952148 60.66534424 C-236.13068375 61.20144549 -238.75349624 61.72866683 -241.37695312 62.25341797 C-281.8039621 70.3462624 -321.54059803 80.45894263 -361.0625 92.1875 C-362.14250275 92.50753998 -362.14250275 92.50753998 -363.24432373 92.83404541 C-430.518972 112.8156171 -495.64976871 139.25499788 -559.0625 169.1875 C-559.74334656 169.50847656 -560.42419312 169.82945312 -561.12567139 170.16015625 C-580.0002319 179.06494629 -598.60427512 188.45437362 -617.0625 198.1875 C-618.18817383 198.78062988 -619.31384766 199.37375977 -620.47363281 199.98486328 C-634.26902682 207.27705945 -647.8511707 214.86985592 -661.2890625 222.80078125 C-666.01022884 225.58434531 -670.76994189 228.29172984 -675.54736328 230.97729492 C-696.34036436 241.56755047 -696.34036436 241.56755047 -709.60667324 259.66012001 C-711.53652333 270.36037925 -709.86381115 282.07725675 -708.49584961 292.74072266 C-708.32493712 294.13357713 -708.15503415 295.52655578 -707.98603249 296.9196434 C-707.61963626 299.9283799 -707.24798084 302.93639944 -706.87222481 305.94398117 C-705.92376265 313.54697661 -705.01073624 321.15428281 -704.09609449 328.76140809 C-703.87659915 330.58691709 -703.65682193 332.41239223 -703.4367739 334.23783469 C-700.83243491 355.85607926 -698.42375243 377.49516377 -696.04305196 399.13901854 C-695.68778465 402.36886255 -695.33209827 405.59866019 -694.97633171 408.82844925 C-693.58913699 421.42524298 -692.20621264 434.02250272 -690.82513815 446.61996877 C-689.44818243 459.17855535 -688.06737342 471.73671768 -686.68661678 484.29488683 C-683.38337992 514.34011955 -680.08654575 544.38605363 -676.79081482 574.43211047 C-675.11035051 589.752304 -673.42917421 605.07241935 -671.74788918 620.39252283 C-665.75843082 674.9693128 -659.77074561 729.54629714 -653.78759766 784.1237793 C-653.69832973 784.93806736 -653.60906181 785.75235543 -653.5170888 786.59131889 C-651.99157005 800.50688394 -650.46609721 814.42245402 -648.94063997 828.33802581 C-643.93824832 873.97087695 -638.93246813 919.60335434 -633.92159697 965.23527516 C-633.21570022 971.66359737 -632.50985981 978.09192576 -631.80402571 984.52025485 C-631.03986202 991.47981403 -630.27567343 998.43937046 -629.51147461 1005.39892578 C-629.43707971 1006.07643991 -629.36268481 1006.75395403 -629.28603552 1007.45199889 C-627.50032352 1023.71440333 -625.7142728 1039.97677051 -623.92755908 1056.23906493 C-622.87830063 1065.78946671 -621.82957047 1075.33992643 -620.78107148 1084.89041162 C-620.03909671 1091.64817582 -619.29627708 1098.40584647 -618.55281883 1105.16344762 C-616.25458706 1126.05715116 -613.97175577 1146.95220301 -611.75047719 1167.85424316 C-611.43425058 1170.8274113 -611.1170944 1173.80047863 -610.79955769 1176.77350712 C-610.64619112 1178.20959392 -610.64619112 1178.20959392 -610.48972625 1179.67469257 C-610.28703402 1181.57243483 -610.08429966 1183.47017259 -609.88152152 1185.36790568 C-609.30867663 1190.73522635 -608.74253169 1196.10319567 -608.18198252 1201.47181368 C-607.84107369 1204.72280607 -607.49409571 1207.97313068 -607.14554858 1211.22331214 C-606.98879451 1212.6972679 -606.83458179 1214.17149691 -606.6833241 1215.64602685 C-604.88224218 1233.18162309 -603.0688278 1247.92790456 -589.07421875 1259.8515625 C-583.62857989 1264.07528758 -577.9215404 1267.89732849 -572.20214844 1271.73730469 C-568.64160089 1274.15054663 -565.13377611 1276.63734125 -561.625 1279.125 C-560.56817017 1279.87293823 -560.56817017 1279.87293823 -559.48999023 1280.63598633 C-558.06096588 1281.64745872 -556.63217375 1282.65925927 -555.20361328 1283.67138672 C-551.65952704 1286.18093923 -548.1107939 1288.68390218 -544.5625 1291.1875 C-543.14581078 1292.18746804 -541.72914412 1293.18746805 -540.3125 1294.1875 C-539.61125 1294.6825 -538.91 1295.1775 -538.1875 1295.6875 C-496.39583333 1325.1875 -454.60416667 1354.6875 -412.8125 1384.1875 C-412.11133057 1384.68241943 -411.41016113 1385.17733887 -410.68774414 1385.68725586 C-409.27017346 1386.68794188 -407.85269308 1387.68875583 -406.43530273 1388.68969727 C-402.90819428 1391.18025451 -399.37957783 1393.66861592 -395.84765625 1396.15234375 C-388.59015027 1401.25981989 -381.36663676 1406.40785849 -374.1875 1411.625 C-367.98712359 1416.1284242 -361.71535332 1420.50856705 -355.375 1424.8125 C-349.0287878 1429.12078449 -342.78318317 1433.53086733 -336.61987305 1438.09643555 C-329.19367937 1443.59124203 -321.62234359 1448.87897749 -314.0625 1454.1875 C-311.24878753 1456.16494884 -308.43627732 1458.1440907 -305.625 1460.125 C-304.92503906 1460.61806641 -304.22507812 1461.11113281 -303.50390625 1461.61914062 C-298.36745158 1465.2457034 -293.27393272 1468.92874451 -288.1875 1472.625 C-282.04748363 1477.08351259 -275.84009564 1481.42504591 -269.5625 1485.6875 C-262.51902097 1490.46998484 -255.5806538 1495.3758705 -248.69360352 1500.38061523 C-241.5680938 1505.55790803 -234.37596918 1510.63718652 -227.17138672 1515.70361328 C-223.63208833 1518.19398786 -220.09754816 1520.69109792 -216.5625 1523.1875 C-215.14585588 1524.18753195 -213.72918922 1525.18753196 -212.3125 1526.1875 C-203.8125 1532.1875 -195.3125 1538.1875 -186.8125 1544.1875 C-186.11133057 1544.68241943 -185.41016113 1545.17733887 -184.68774414 1545.68725586 C-183.27017346 1546.68794188 -181.85269308 1547.68875583 -180.43530273 1548.68969727 C-176.90819428 1551.18025451 -173.37957783 1553.66861592 -169.84765625 1556.15234375 C-162.614093 1561.24272206 -155.41028927 1566.36946947 -148.25 1571.5625 C-141.06395213 1576.77373224 -133.80973058 1581.88025051 -126.52636719 1586.9543457 C-120.97476336 1590.8289697 -115.47418318 1594.76691671 -110 1598.75 C-103.8630151 1603.21338489 -97.65358035 1607.55072924 -91.375 1611.8125 C-85.09804165 1616.07353789 -78.92383348 1620.4364109 -72.83081055 1624.95581055 C-65.17046244 1630.62028885 -57.32944249 1636.027718 -49.51416016 1641.47509766 C-45.79209946 1644.07483214 -42.08257456 1646.69216412 -38.375 1649.3125 C-37.6855127 1649.79968506 -36.99602539 1650.28687012 -36.28564453 1650.78881836 C-34.90340269 1651.76567403 -33.52124081 1652.74264286 -32.13916016 1653.71972656 C-29.32510166 1655.70868961 -26.50977504 1657.69585324 -23.69433594 1659.68286133 C-22.27428781 1660.68512388 -20.8543657 1661.68756501 -19.43457031 1662.69018555 C-15.90772401 1665.18060561 -12.37933792 1667.66878462 -8.84765625 1670.15234375 C1.47372078 1677.41557915 11.72156313 1684.77675152 21.9375 1692.1875 C27.11772374 1689.33199405 31.94242736 1686.19111432 36.75 1682.75 C37.48283203 1682.22921875 38.21566406 1681.7084375 38.97070312 1681.171875 C45.07154033 1676.82820331 51.13962963 1672.43906424 57.2043457 1668.04516602 C62.95141383 1663.88558991 68.73967555 1659.78764001 74.54296875 1655.70703125 C79.7031672 1652.07295434 84.8267894 1648.39078599 89.9375 1644.6875 C96.43808483 1639.97709343 102.9761388 1635.32452392 109.54296875 1630.70703125 C114.7031672 1627.07295434 119.8267894 1623.39078599 124.9375 1619.6875 C131.44022086 1614.97554564 137.98021791 1610.32114809 144.54956055 1605.70263672 C149.64654329 1602.11354319 154.70431434 1598.47326844 159.75 1594.8125 C166.9346426 1589.60207223 174.18837487 1584.49769059 181.46923828 1579.42285156 C187.81347153 1574.99332488 194.09663413 1570.48517804 200.359375 1565.94140625 C205.35848265 1562.31771446 210.386549 1558.73852115 215.4375 1555.1875 C221.30241143 1551.06363855 227.13183732 1546.89435712 232.9375 1542.6875 C239.43808483 1537.97709343 245.9761388 1533.32452392 252.54296875 1528.70703125 C257.7031672 1525.07295434 262.8267894 1521.39078599 267.9375 1517.6875 C274.43808483 1512.97709343 280.9761388 1508.32452392 287.54296875 1503.70703125 C292.7031672 1500.07295434 297.8267894 1496.39078599 302.9375 1492.6875 C309.43808483 1487.97709343 315.9761388 1483.32452392 322.54296875 1478.70703125 C327.7031672 1475.07295434 332.8267894 1471.39078599 337.9375 1467.6875 C344.43808483 1462.97709343 350.9761388 1458.32452392 357.54296875 1453.70703125 C362.7031672 1450.07295434 367.8267894 1446.39078599 372.9375 1442.6875 C379.43808483 1437.97709343 385.9761388 1433.32452392 392.54296875 1428.70703125 C397.7031672 1425.07295434 402.8267894 1421.39078599 407.9375 1417.6875 C414.43808483 1412.97709343 420.9761388 1408.32452392 427.54296875 1403.70703125 C432.7031672 1400.07295434 437.8267894 1396.39078599 442.9375 1392.6875 C449.43808483 1387.97709343 455.9761388 1383.32452392 462.54296875 1378.70703125 C467.7031672 1375.07295434 472.8267894 1371.39078599 477.9375 1367.6875 C483.7431656 1363.48064076 489.57271719 1359.31154728 495.4375 1355.1875 C504.32826572 1348.93317124 513.13583001 1342.5663447 521.9375 1336.1875 C531.43432413 1329.30485541 540.9490651 1322.4532806 550.54321289 1315.70678711 C555.70340195 1312.07289314 560.82688149 1308.39071926 565.9375 1304.6875 C572.43808483 1299.97709343 578.9761388 1295.32452392 585.54296875 1290.70703125 C591.46172554 1286.53873857 597.33235191 1282.306157 603.18945312 1278.05175781 C606.93505335 1275.33611629 610.69572802 1272.64859883 614.5 1270.015625 C634.61578472 1256.55322147 634.61578472 1256.55322147 644.64616394 1235.37115479 C644.81679892 1234.02251961 644.97623676 1232.67243087 645.12573242 1231.32128906 C645.2528054 1230.24761148 645.2528054 1230.24761148 645.38244551 1229.15224344 C650.97421412 1181.88774423 656.48091533 1134.6142184 661.86828571 1087.32598377 C663.68378122 1071.39031223 665.50345778 1055.45511813 667.32397461 1039.52001953 C667.41605169 1038.71401387 667.50812877 1037.90800821 667.60299607 1037.07757814 C672.25234047 996.38062306 676.93670073 955.68770844 681.62443864 914.99516076 C682.16702858 910.2849987 682.70954608 905.5748283 683.25206757 900.86465836 C685.24207212 883.58760902 687.2323118 866.31058679 689.22272456 849.03358448 C694.08587301 806.82085384 698.94765593 764.6079662 703.8046875 722.39453125 C703.9176994 721.41233693 704.0307113 720.4301426 704.1471478 719.41818482 C711.47191812 655.75683303 718.74821334 592.09027641 725.94197416 528.41397047 C731.28083383 481.15740465 736.66495887 433.90835937 742.3125 386.6875 C742.44487061 385.58045212 742.57724121 384.47340424 742.71362305 383.33280945 C745.09090843 363.46342345 747.49242603 343.59736755 750.00359344 323.74441528 C750.27159931 321.62358297 750.53849632 319.50261427 750.80499268 317.3815918 C751.55983705 311.37807403 752.32238545 305.3759081 753.11279297 299.37695312 C756.85907969 273.22791888 756.85907969 273.22791888 747.69921875 249.33203125 C740.1609768 240.15576777 730.13853207 234.88758462 719.9375 229.1875 C718.9592627 228.63674805 717.98102539 228.08599609 716.97314453 227.51855469 C641.65265677 185.13403273 564.04772858 148.13591561 454.9375 109.1875 C454.16098083 108.92386658 453.38446167 108.66023315 452.58441162 108.38861084 C410.15508347 94.00963083 367.08092852 81.88016397 323.44067383 71.7677002 C321.08409332 71.22147825 318.72852534 70.6710679 316.37304688 70.12011719 C219.11116575 47.48831366 119.3169168 37.07637938 -233.50952148 60.66534424 Z " fill="#080042" transform="translate(1588.0625,333.8125)"/>
  <path d="M0 0 C1.01336426 0.46003418 2.02672852 0.92006836 3.07080078 1.39404297 C36.66178622 16.65143028 70.0886646 32.63891466 102.35546875 50.54101562 C105.03083223 52.0170101 107.71640589 53.4724554 110.40625 54.921875 C124.11592118 62.31607534 137.6106571 70.04092738 151 78 C151.79229004 78.46680176 152.58458008 78.93360352 153.40087891 79.41455078 C171.87762098 90.33911313 187.54561336 102.53340157 194 124 C198.84314244 145.37782384 193.63548263 169.58677296 190.67614746 190.93780518 C189.38692281 200.24968258 188.16892265 209.57110848 186.94271851 218.89145279 C186.50383355 222.22553948 186.06333041 225.55941004 185.62280273 228.89328003 C182.47328548 252.78107022 179.56590878 276.69579296 176.75 300.625 C176.61075607 301.8071534 176.47151215 302.98930679 176.32804871 304.20728302 C169.40172301 363.0795741 163.04137885 422.01554567 156.61868286 480.94439697 C150.16587244 540.14714621 143.64640319 599.34169599 137.00390625 658.5234375 C136.91872993 659.28232916 136.83355362 660.04122083 136.7457962 660.82310921 C134.06397553 684.71588733 131.37660217 708.60804044 128.6875 732.5 C128.60174961 733.26187878 128.51599922 734.02375756 128.42765033 734.80872357 C127.47965348 743.2314916 126.53157887 751.65425089 125.58346176 760.07700539 C124.14681911 772.83966042 122.71032753 785.60233245 121.27404703 798.36502824 C120.85982664 802.04574701 120.44558188 805.72646303 120.03128052 809.40717268 C115.73351968 847.58934223 111.45591464 885.77363559 107.22883058 923.96370888 C106.88213757 927.09580759 106.53530566 930.22789089 106.18843651 933.35997009 C104.22261231 951.11174904 102.25845264 968.86370717 100.30763882 986.61714268 C99.59419231 993.10881048 98.87822008 999.6001965 98.16034728 1006.0913763 C97.76073133 1009.70617018 97.3623877 1013.32109027 96.96803474 1016.9364624 C95.44714746 1030.87295281 93.84290499 1044.79865457 92.03613281 1058.70117188 C91.89207378 1059.87613472 91.74801476 1061.05109756 91.5995903 1062.26166534 C89.46080141 1078.18841621 83.98008959 1088.54435574 71.328125 1098.5 C65.09269443 1103.22450828 58.72515374 1107.77005361 52.35839844 1112.31494141 C48.58488979 1115.01108599 44.82295909 1117.72319608 41.0625 1120.4375 C40.32314209 1120.97084961 39.58378418 1121.50419922 38.82202148 1122.05371094 C33.35680129 1126.00281907 27.92335453 1129.99364767 22.5 1134 C12.64592179 1141.27942622 2.71425666 1148.44830324 -7.22949219 1155.60449219 C-15.77052993 1161.75329179 -24.28591764 1167.93305997 -32.75 1174.1875 C-39.26722873 1179.00286929 -45.82113315 1183.75864473 -52.42578125 1188.453125 C-56.54889574 1191.38542733 -60.64965194 1194.34848276 -64.75 1197.3125 C-65.50804932 1197.86043213 -66.26609863 1198.40836426 -67.04711914 1198.97290039 C-68.59333097 1200.09072453 -70.13947313 1201.20864504 -71.68554688 1202.32666016 C-74.70908087 1204.51266248 -77.73373551 1206.69711062 -80.75854492 1208.88134766 C-82.25622381 1209.96288682 -83.75378189 1211.04459331 -85.2512207 1212.12646484 C-88.98707173 1214.82541173 -92.72439233 1217.52227542 -96.46484375 1220.21484375 C-104.25915847 1225.82903178 -112.024536 1231.47885383 -119.75 1237.1875 C-126.26722873 1242.00286929 -132.82113315 1246.75864473 -139.42578125 1251.453125 C-143.54889574 1254.38542733 -147.64965194 1257.34848276 -151.75 1260.3125 C-152.50804932 1260.86043213 -153.26609863 1261.40836426 -154.04711914 1261.97290039 C-155.59333097 1263.09072453 -157.13947313 1264.20864504 -158.68554688 1265.32666016 C-162.45593019 1268.05263139 -166.22803694 1270.77621534 -170 1273.5 C-171.50000859 1274.58332144 -173.00000858 1275.66665479 -174.5 1276.75 C-201.5 1296.25 -201.5 1296.25 -203.74975586 1297.87475586 C-205.2506555 1298.95878416 -206.75146922 1300.04293142 -208.25219727 1301.12719727 C-211.98773967 1303.82587655 -215.72472254 1306.52251312 -219.46484375 1309.21484375 C-227.25915847 1314.82903178 -235.024536 1320.47885383 -242.75 1326.1875 C-249.26722873 1331.00286929 -255.82113315 1335.75864473 -262.42578125 1340.453125 C-266.54889574 1343.38542733 -270.64965194 1346.34848276 -274.75 1349.3125 C-275.50804932 1349.86043213 -276.26609863 1350.40836426 -277.04711914 1350.97290039 C-278.59333097 1352.09072453 -280.13947313 1353.20864504 -281.68554688 1354.32666016 C-285.45593019 1357.05263139 -289.22803694 1359.77621534 -293 1362.5 C-294.50000859 1363.58332144 -296.00000858 1364.66665479 -297.5 1365.75 C-378.5 1424.25 -378.5 1424.25 -380.74975586 1425.87475586 C-382.2506555 1426.95878416 -383.75146922 1428.04293142 -385.25219727 1429.12719727 C-388.98773967 1431.82587655 -392.72472254 1434.52251312 -396.46484375 1437.21484375 C-404.17462973 1442.76804624 -411.85757631 1448.35437205 -419.5 1454 C-429.35407821 1461.27942622 -439.28574334 1468.44830324 -449.22949219 1475.60449219 C-457.68593697 1481.69239226 -466.1185466 1487.80914401 -474.5 1494 C-513.67329341 1522.90816023 -513.67329341 1522.90816023 -522.625 1523.0625 C-533.19789742 1521.26710233 -542.50644314 1512.50747477 -550.80078125 1506.171875 C-554.92289772 1503.03395825 -559.13156932 1500.03349057 -563.375 1497.0625 C-571.54428402 1491.33538617 -579.63726197 1485.50782107 -587.71630859 1479.65429688 C-591.55879112 1476.87081798 -595.4040997 1474.09125401 -599.25 1471.3125 C-600.3790979 1470.49664429 -600.3790979 1470.49664429 -601.53100586 1469.66430664 C-606.01113583 1466.42939142 -610.50025797 1463.20756872 -615 1460 C-620.26361575 1456.24791618 -625.51061165 1452.47334082 -630.75 1448.6875 C-631.50724365 1448.14037354 -632.2644873 1447.59324707 -633.04467773 1447.02954102 C-636.88165963 1444.25629293 -640.71701171 1441.480812 -644.55078125 1438.703125 C-651.83809915 1433.42667206 -659.14142863 1428.17673876 -666.5 1423 C-674.62784334 1417.28208009 -682.68666044 1411.47175905 -690.73388672 1405.64111328 C-694.486448 1402.92351827 -698.24343419 1400.21205527 -702 1397.5 C-703.50002146 1396.41669638 -705.00002146 1395.33336304 -706.5 1394.25 C-707.2425 1393.71375 -707.985 1393.1775 -708.75 1392.625 C-715.49999999 1387.75 -715.49999999 1387.75 -717.75024414 1386.12475586 C-719.2493445 1385.04211746 -720.74853062 1383.9595978 -722.24780273 1382.87719727 C-726.01228168 1380.15920177 -729.77521904 1377.43911932 -733.53515625 1374.71484375 C-740.82747964 1369.43419578 -748.1361012 1364.1804866 -755.5 1359 C-763.62784334 1353.28208009 -771.68666044 1347.47175905 -779.73388672 1341.64111328 C-783.486448 1338.92351827 -787.24343419 1336.21205527 -791 1333.5 C-792.50002146 1332.41669638 -794.00002146 1331.33336304 -795.5 1330.25 C-796.2425 1329.71375 -796.985 1329.1775 -797.75 1328.625 C-804.50000001 1323.74999999 -804.50000001 1323.74999999 -806.75097656 1322.12426758 C-808.24768701 1321.04332809 -809.74443168 1319.96243599 -811.24121094 1318.8815918 C-815.04182637 1316.1370246 -818.84180298 1313.39158034 -822.640625 1310.64453125 C-829.41540742 1305.74654666 -836.19258102 1300.85255912 -843 1296 C-852.14293615 1289.48260504 -861.23392586 1282.89322028 -870.33203125 1276.31347656 C-877.87582066 1270.85849271 -885.41937297 1265.40372803 -893 1260 C-902.14293615 1253.48260504 -911.23392586 1246.89322028 -920.33203125 1240.31347656 C-927.87582066 1234.85849271 -935.41937297 1229.40372803 -943 1224 C-950.58659358 1218.59201881 -958.13590141 1213.13272873 -965.68554688 1207.67333984 C-969.45593017 1204.94736863 -973.22801519 1202.22375451 -977 1199.5 C-981.54775578 1196.2160604 -986.09509374 1192.93154955 -990.640625 1189.64453125 C-997.41540742 1184.74654666 -1004.19258102 1179.85255912 -1011 1175 C-1020.14293615 1168.48260504 -1029.23392586 1161.89322028 -1038.33203125 1155.31347656 C-1045.87582066 1149.85849271 -1053.41937297 1144.40372803 -1061 1139 C-1070.14293615 1132.48260504 -1079.23392586 1125.89322028 -1088.33203125 1119.31347656 C-1090.63778825 1117.64616236 -1092.94383703 1115.97925262 -1095.25 1114.3125 C-1095.99596436 1113.77310791 -1096.74192871 1113.23371582 -1097.51049805 1112.67797852 C-1101.58774699 1109.73247667 -1105.67562701 1106.80301572 -1109.77832031 1103.89306641 C-1111.50324273 1102.6671158 -1113.22333542 1101.43474813 -1114.94140625 1100.19921875 C-1116.83692659 1098.83628394 -1118.73932729 1097.48279755 -1120.65234375 1096.14453125 C-1131.16588232 1088.49991169 -1134.49355017 1079.4588863 -1136.49603879 1066.88540936 C-1136.92992927 1063.55844412 -1137.30983827 1060.22960663 -1137.670578 1056.8939209 C-1137.81442041 1055.62527773 -1137.95826282 1054.35663457 -1138.10646409 1053.04954767 C-1138.50238409 1049.55526142 -1138.88814012 1046.05991976 -1139.27207038 1042.56429863 C-1139.69070391 1038.76899634 -1140.11876175 1034.9747547 -1140.54551888 1031.18035889 C-1141.38506868 1023.70175708 -1142.21558059 1016.22217731 -1143.0430548 1008.74223083 C-1143.72818127 1002.55111551 -1144.41707327 996.36042875 -1145.10835838 990.16999817 C-1145.20799576 989.27769824 -1145.30763314 988.38539832 -1145.41028984 987.466059 C-1145.61320537 985.64889527 -1145.81612189 983.83173166 -1146.01903939 982.01456815 C-1148.69848824 958.01182637 -1151.35256694 934.00629147 -1154 910 C-1154.10450065 909.0524736 -1154.2090013 908.1049472 -1154.31666863 907.12870789 C-1160.36269357 852.30400411 -1166.3549874 797.47344316 -1172.33394676 742.64139074 C-1173.89863892 728.29224516 -1175.46463322 713.94324209 -1177.03146362 699.59432983 C-1177.14449444 698.55920127 -1177.25752526 697.52407271 -1177.37398126 696.45757661 C-1177.94541018 691.22454468 -1178.51686359 685.99151543 -1179.08833206 680.75848782 C-1180.22254102 670.37235166 -1181.3566396 659.98620345 -1182.4907074 649.60005188 C-1182.6020513 648.58033705 -1182.71339521 647.56062221 -1182.82811318 646.51000693 C-1184.48696763 631.31765639 -1186.14523687 616.12524205 -1187.80311584 600.93278503 C-1192.45041396 558.34636276 -1197.10140674 515.76035419 -1201.765625 473.17578125 C-1202.00625732 470.97869561 -1202.24688906 468.78160992 -1202.48752022 466.58452415 C-1203.2821833 459.32895661 -1204.07686641 452.07339126 -1204.87161267 444.81783283 C-1211.31188714 386.0218141 -1217.73263009 327.22366439 -1224.10445613 268.42018515 C-1224.68294509 263.08224333 -1225.26248638 257.74441658 -1225.84255981 252.40664673 C-1229.12983294 222.15059284 -1232.36138738 191.88888046 -1235.46893692 161.61379051 C-1235.78280939 158.55648287 -1236.09883879 155.49941101 -1236.41683578 152.44252968 C-1236.78791197 148.87317018 -1237.15384566 145.3033193 -1237.51586866 141.73303056 C-1237.71215061 139.80850748 -1237.91328335 137.88448104 -1238.11459732 135.96047783 C-1240.11491295 116.04365279 -1240.11491295 116.04365279 -1234.859375 109.13671875 C-1227.18153822 100.31365842 -1217.48764513 94.65392883 -1207.60888672 88.60302734 C-1205.0438613 87.02695052 -1202.49114045 85.43270594 -1199.94140625 83.83203125 C-1179.66688437 71.13132501 -1158.92212745 59.24271767 -1137.99267578 47.65869141 C-1136.10596147 46.61297946 -1134.22123354 45.56366783 -1132.33935547 44.50927734 C-1099.48765594 26.1080681 -1065.4847267 9.53296722 -1030.89257812 -5.32275391 C-1027.28730247 -6.87185071 -1023.69730828 -8.45407159 -1020.109375 -10.04296875 C-936.31329491 -46.91176207 -847.51996377 -73.78719204 -567.6897583 -111.8671875 C-565.35662479 -111.9823909 -563.023744 -112.1014231 -560.69091797 -112.22265625 C-461.63543506 -117.22935898 -361.75490842 -106.86876384 0 0 Z M-606 -73 C-606.87281616 -72.9321228 -607.74563232 -72.86424561 -608.64489746 -72.79431152 C-694.69257264 -66.05342403 -779.35005085 -51.15240304 -1005 24 C-1006.15338867 24.4945166 -1007.30677734 24.9890332 -1008.49511719 25.49853516 C-1015.6960531 28.59439618 -1022.86051046 31.76504106 -1030 35 C-1031.09747559 35.49725586 -1032.19495117 35.99451172 -1033.32568359 36.50683594 C-1062.52666533 49.80580438 -1091.55951944 63.84502236 -1119.51904297 79.60351562 C-1122.15326394 81.08626941 -1124.79686824 82.55135955 -1127.44140625 84.015625 C-1146.28269285 94.49929809 -1164.76145718 105.65164389 -1182.9375 117.25 C-1183.92919189 117.87575928 -1183.92919189 117.87575928 -1184.94091797 118.51416016 C-1188.75681603 120.98470304 -1191.89559892 123.6856928 -1195 127 C-1195.721875 127.7425 -1196.44375 128.485 -1197.1875 129.25 C-1201.231432 135.38562096 -1201.29935186 142.31949586 -1200.48948669 149.40960693 C-1200.40902349 150.21786572 -1200.32856029 151.02612451 -1200.24565881 151.85887599 C-1199.96999396 154.58951725 -1199.67335115 157.31746186 -1199.37670898 160.04589844 C-1199.16761131 162.06748608 -1198.95970065 164.08919677 -1198.75284767 166.11101532 C-1198.16638942 171.80114184 -1197.56049295 177.48906317 -1196.95131993 183.17679691 C-1196.41488045 188.206969 -1195.88921023 193.23824677 -1195.36315602 198.26951385 C-1193.37250586 217.29740298 -1191.33302262 236.31999907 -1189.28601968 255.34189653 C-1188.9953597 258.04312427 -1188.70484379 260.74436747 -1188.41435719 263.44561386 C-1181.81849687 324.77451265 -1175.13961332 386.09435521 -1168.4459042 447.4126395 C-1166.57584347 464.54379765 -1164.70740083 481.6751317 -1162.83999634 498.80657959 C-1162.70638957 500.03226019 -1162.57278281 501.25794079 -1162.43512736 502.52076323 C-1161.89460488 507.47941549 -1161.35408803 512.43806837 -1160.81358026 517.39672223 C-1155.90545075 562.42397773 -1150.99307204 607.45076853 -1146.07780659 652.47724557 C-1142.75295043 682.93476749 -1139.43002606 713.39249881 -1136.11035156 743.85058594 C-1133.03580012 772.05948094 -1129.9594552 800.26817899 -1126.87888622 828.47641754 C-1126.80266528 829.17436429 -1126.72644434 829.87231104 -1126.64791367 830.59140769 C-1126.57211601 831.28547708 -1126.49631835 831.97954647 -1126.4182238 832.69464827 C-1126.34284497 833.38488299 -1126.26746615 834.07511772 -1126.18980312 834.78626865 C-1126.03874504 836.16947804 -1125.88768442 837.55268715 -1125.73662121 838.93589598 C-1124.65071294 848.87921338 -1123.56620713 858.82268296 -1122.48245239 868.76623535 C-1119.37374059 897.28348235 -1116.24623484 925.79853451 -1113.07597023 954.30900908 C-1112.33578128 960.96804241 -1111.59944655 967.62749112 -1110.86534745 974.28719842 C-1109.61452971 985.63303988 -1108.35282831 996.97756824 -1107.07082278 1008.31993139 C-1106.47432732 1013.5986689 -1105.88245558 1018.8778074 -1105.30360985 1024.15851212 C-1104.7732957 1028.99410809 -1104.22858382 1033.82785956 -1103.67244506 1038.66055155 C-1103.47274359 1040.4175129 -1103.2782096 1042.1750708 -1103.08933473 1043.93322897 C-1101.93279677 1054.66383832 -1100.783186 1063.80717263 -1093 1072 C-1090.54616351 1073.96662333 -1087.97623776 1075.7349484 -1085.375 1077.5 C-1083.83916023 1078.56281503 -1082.30402662 1079.62665109 -1080.76953125 1080.69140625 C-1079.9801416 1081.23684082 -1079.19075195 1081.78227539 -1078.37744141 1082.34423828 C-1074.57159591 1084.99480761 -1070.81677552 1087.71460076 -1067.0625 1090.4375 C-1066.31726074 1090.97697266 -1065.57202148 1091.51644531 -1064.80419922 1092.07226562 C-1063.29127194 1093.16748563 -1061.77857663 1094.26302614 -1060.26611328 1095.35888672 C-1056.51355215 1098.07648163 -1052.75661955 1100.78801939 -1049 1103.5 C-1044.48608105 1106.75869057 -1039.97312335 1110.0186666 -1035.46484375 1113.28515625 C-1028.17252036 1118.56580422 -1020.8638988 1123.8195134 -1013.5 1129 C-1005.37215666 1134.71791991 -997.31333956 1140.52824095 -989.26611328 1146.35888672 C-985.51355215 1149.07648163 -981.75661955 1151.78801939 -978 1154.5 C-973.48608105 1157.75869057 -968.97312335 1161.0186666 -964.46484375 1164.28515625 C-957.17252036 1169.56580422 -949.8638988 1174.8195134 -942.5 1180 C-934.37215666 1185.71791991 -926.31333956 1191.52824095 -918.26611328 1197.35888672 C-914.51355215 1200.07648163 -910.75661955 1202.78801939 -907 1205.5 C-902.48608105 1208.75869057 -897.97312335 1212.0186666 -893.46484375 1215.28515625 C-886.17252036 1220.56580422 -878.8638988 1225.8195134 -871.5 1231 C-863.37215666 1236.71791991 -855.31333956 1242.52824095 -847.26611328 1248.35888672 C-843.51355215 1251.07648163 -839.75661955 1253.78801939 -836 1256.5 C-831.48608105 1259.75869057 -826.97312335 1263.0186666 -822.46484375 1266.28515625 C-815.17252036 1271.56580422 -807.8638988 1276.8195134 -800.5 1282 C-792.37815439 1287.71370051 -784.32506432 1293.51947472 -776.28369141 1299.34570312 C-772.44120888 1302.12918202 -768.5959003 1304.90874599 -764.75 1307.6875 C-763.6209021 1308.50335571 -763.6209021 1308.50335571 -762.46899414 1309.33569336 C-757.43156592 1312.97301042 -752.38092946 1316.59122906 -747.32055664 1320.1965332 C-742.59364258 1323.5674928 -737.89009337 1326.97022626 -733.1875 1330.375 C-727.31868597 1334.62242981 -721.42575593 1338.83239752 -715.5 1343 C-705.84482256 1349.79218798 -696.28794223 1356.71820101 -686.72949219 1363.64550781 C-678.68371227 1369.47462861 -670.62615028 1375.28327116 -662.5 1381 C-652.84491899 1387.79232824 -643.2879448 1394.71819915 -633.72949219 1401.64550781 C-625.68371227 1407.47462861 -617.62615028 1413.28327116 -609.5 1419 C-601.37815439 1424.71370051 -593.32506432 1430.51947472 -585.28369141 1436.34570312 C-581.44120888 1439.12918202 -577.5959003 1441.90874599 -573.75 1444.6875 C-572.6209021 1445.50335571 -572.6209021 1445.50335571 -571.46899414 1446.33569336 C-566.43917173 1449.96751859 -561.39804297 1453.58297989 -556.3425293 1457.17895508 C-553.00650782 1459.55508131 -549.68735583 1461.95278524 -546.37890625 1464.3671875 C-545.58033203 1464.94855469 -544.78175781 1465.52992187 -543.95898438 1466.12890625 C-542.40472842 1467.26134702 -540.85251408 1468.39659727 -539.30273438 1469.53515625 C-530.54864733 1476.31535844 -530.54864733 1476.31535844 -520.02197266 1478.38671875 C-513.37291727 1477.11503272 -507.77388573 1472.57083331 -502.5625 1468.5 C-497.01664404 1464.25341416 -491.41464491 1460.12382699 -485.6875 1456.125 C-479.49748504 1451.79370659 -473.38484769 1447.36977555 -467.3125 1442.875 C-461.33275433 1438.4489568 -455.33167057 1434.06077286 -449.26782227 1429.75073242 C-444.57939152 1426.41807392 -439.91176609 1423.05734931 -435.25 1419.6875 C-434.49195068 1419.13956787 -433.73390137 1418.59163574 -432.95288086 1418.02709961 C-431.40666903 1416.90927547 -429.86052687 1415.79135496 -428.31445312 1414.67333984 C-424.54406981 1411.94736861 -420.77196306 1409.22378466 -417 1406.5 C-415.49999141 1405.41667856 -413.99999142 1404.33334521 -412.5 1403.25 C-263.99999992 1295.99999994 -263.99999992 1295.99999994 -167.25024414 1226.12524414 C-165.7493445 1225.04121584 -164.24853078 1223.95706858 -162.74780273 1222.87280273 C-159.01226033 1220.17412345 -155.27527746 1217.47748688 -151.53515625 1214.78515625 C-143.74084153 1209.17096822 -135.975464 1203.52114617 -128.25 1197.8125 C-121.73277127 1192.99713071 -115.17886685 1188.24135527 -108.57421875 1183.546875 C-104.45110426 1180.61457267 -100.35034806 1177.65151724 -96.25 1174.6875 C-95.49195068 1174.13956787 -94.73390137 1173.59163574 -93.95288086 1173.02709961 C-92.40666903 1171.90927547 -90.86052687 1170.79135496 -89.31445312 1169.67333984 C-85.54406981 1166.94736861 -81.77196306 1164.22378466 -78 1161.5 C-76.49999141 1160.41667856 -74.99999142 1159.33334521 -73.5 1158.25 C-10.5 1112.75 -10.5 1112.75 -8.25024414 1111.12524414 C-6.7493445 1110.04121584 -5.24853078 1108.95706858 -3.74780273 1107.87280273 C-0.01226033 1105.17412345 3.72472254 1102.47748688 7.46484375 1099.78515625 C11.98258005 1096.5317155 16.49382961 1093.26944042 21 1090 C21.82806152 1089.39945801 22.65612305 1088.79891602 23.50927734 1088.18017578 C26.05126694 1086.33308378 28.58874424 1084.47995514 31.125 1082.625 C32.27923462 1081.78690796 32.27923462 1081.78690796 33.45678711 1080.93188477 C43.59358322 1073.7111704 43.59358322 1073.7111704 51.375 1064.1875 C51.83648438 1063.43855469 52.29796875 1062.68960937 52.7734375 1061.91796875 C55.82212519 1054.66519898 56.41495339 1046.45718005 57.27978516 1038.69384766 C57.39526262 1037.68840408 57.51074009 1036.68296051 57.62971687 1035.64704895 C58.02028545 1032.23650997 58.40466029 1028.82530163 58.7890625 1025.4140625 C59.07781458 1022.87938735 59.36691034 1020.34475133 59.65631104 1017.81015015 C60.38716146 1011.40217525 61.11307032 1004.99364848 61.83756065 998.58495176 C62.45944421 993.08507725 63.08340547 987.58544146 63.70855713 982.0859375 C72.6791481 903.16610627 81.54560408 824.23439815 90.42966074 745.3047846 C92.35500755 728.19923356 94.28072772 711.09372458 96.20703125 693.98828125 C96.29533948 693.20410772 96.3836477 692.41993418 96.47463194 691.61199781 C102.30667135 639.82474802 108.16088403 588.04003307 114.03073967 536.25705642 C114.42204811 532.8049131 114.81332059 529.3527657 115.20459226 525.90061822 C118.71360107 494.9410735 122.22321141 463.98159694 125.73797607 433.02270508 C127.82801748 414.61295146 129.91708394 396.20308757 132.00390625 377.79296875 C132.08752297 377.0553061 132.17113969 376.31764345 132.25729024 375.55762738 C137.59037177 328.50682525 142.8668667 281.44987682 148.09420571 234.38720921 C148.33809939 232.19148539 148.58204441 229.99576728 148.82600141 227.8000505 C149.74541865 219.52442195 150.66392089 211.24869255 151.5811913 202.97282577 C151.85564643 200.49674537 152.1302316 198.02067938 152.40496898 195.54463029 C153.14867453 188.8399587 153.88819235 182.13484702 154.62287211 175.42918038 C154.88704712 173.0270675 155.1529886 170.62514853 155.42024922 168.22337699 C155.84607553 164.39593214 156.26705745 160.56797858 156.68727112 156.73991394 C156.81882314 155.56773168 156.95037516 154.39554942 157.0859136 153.18784648 C158.74571429 139.64644523 158.74571429 139.64644523 153.82958984 127.2890625 C149.76693036 122.3495179 145.22458408 119.23832581 139.75 116 C138.83814941 115.44876465 137.92629883 114.8975293 136.98681641 114.32958984 C134.00145655 112.53515792 131.00329621 110.76423398 128 109 C126.47294434 108.1013623 126.47294434 108.1013623 124.91503906 107.18457031 C81.12446662 81.506687 36.44654331 57.64657998 -9.90374756 36.93743896 C-11.93505037 36.02904532 -13.96499767 35.11768769 -15.99462891 34.20556641 C-48.95777849 19.41067504 -82.54579509 6.43048031 -116.73944092 -5.22717285 C-118.97522236 -5.99152916 -121.20885706 -6.76184723 -123.44189453 -7.53417969 C-217.76977298 -40.12658325 -316.25021155 -59.77693815 -443.1114502 -71.78710938 C-445.06333838 -71.93096658 -447.01507796 -72.07685238 -448.9666748 -72.22460938 C-501.01968929 -76.15741977 -553.91652421 -77.09338104 -606 -73 Z " fill="#080042" transform="translate(2132,491)"/>
  <path d="M0 0 C273.57 0 547.14 0 829 0 C830.24495743 7.46974455 831.4103835 14.82232306 832.22756958 22.33091736 C832.33545079 23.29727743 832.443332 24.26363751 832.55448234 25.25928122 C832.91071679 28.45758921 833.26225903 31.65639426 833.61376953 34.85522461 C833.86994242 37.16415423 834.12639944 39.47305234 834.38311768 41.78192139 C835.07613783 48.02274507 835.76499974 54.26402117 836.45294428 60.50540614 C837.17423838 67.04424283 837.89887904 73.58270877 838.62301636 80.12123108 C839.91525479 91.79338064 841.20397981 103.46591572 842.49147426 115.13858939 C843.65858745 125.71909661 844.82885081 136.29925145 846.00146484 146.87915039 C847.5106563 160.49584501 849.01707353 174.11284329 850.52114487 187.73010445 C851.09509202 192.92587971 851.67012782 198.12153279 852.24603653 203.31709099 C852.9232328 209.42766847 853.59773808 215.53853711 854.27014923 221.64964294 C854.51753247 223.89395041 854.76584836 226.1381553 855.01515579 228.38224983 C855.354762 231.44055058 855.6910129 234.49920201 856.02639771 237.55796814 C856.12619812 238.44959135 856.22599854 239.34121455 856.32882321 240.25985664 C856.7567291 244.19310308 857.12629821 248.03594114 857 252 C850.58914314 252.81239193 844.34027096 253.15121088 837.88212585 253.15821838 C836.89878134 253.16315689 835.91543682 253.1680954 834.90229398 253.17318356 C831.61544691 253.18849585 828.32861949 253.19691155 825.04174805 253.20532227 C822.66406339 253.21491286 820.28638037 253.22491543 817.90869904 253.2352953 C812.07941437 253.25959265 806.25012455 253.27933391 800.42081707 253.29702682 C793.48004998 253.31830216 786.53930612 253.34494722 779.59855799 253.37160277 C762.98193503 253.43509804 746.36528384 253.48825774 729.74862145 253.54018524 C721.92907749 253.56470866 714.10953871 253.59072954 706.28999992 253.61683687 C623.80775122 253.89190687 541.32515401 254.11946782 455.23763782 254.17865521 C446.89445066 254.18462911 438.55127856 254.19547149 430.20809937 254.20828247 C420.1199236 254.22358364 410.03177469 254.23154114 399.94358689 254.22975016 C394.85751515 254.22895598 389.77149592 254.23110705 384.68543434 254.24187088 C380.06337112 254.25150452 375.44140517 254.25170885 370.81933844 254.24447334 C369.1602824 254.24346027 367.50122 254.24577037 365.84217489 254.25187886 C343.16426763 254.33009816 330.34883546 249.04892503 312.38330078 235.75830078 C308.58741641 232.95785423 304.76285518 230.19748211 300.9375 227.4375 C299.82084961 226.63022461 299.82084961 226.63022461 298.68164062 225.80664062 C292.94913496 221.6678811 287.17786828 217.58623433 281.39428711 213.51928711 C275.47020892 209.34744926 269.59759925 205.10686623 263.73046875 200.85546875 C258.67917614 197.20004284 253.60039475 193.58653845 248.5 190 C238.84476537 183.2078953 229.28794068 176.28179787 219.72949219 169.35449219 C210.98853205 163.02171736 202.22379766 156.72809656 193.39428711 150.51928711 C187.47020892 146.34744926 181.59759925 142.10686623 175.73046875 137.85546875 C170.67917614 134.20004284 165.60039475 130.58653845 160.5 127 C152.37202697 121.28226802 144.31333638 115.47175675 136.26611328 109.64111328 C132.51355206 106.92351831 128.7565875 104.21202514 125 101.5 C120.45220514 98.21611457 115.90490621 94.93154952 111.359375 91.64453125 C104.58459258 86.74654666 97.80741898 81.85255912 91 77 C85.73638425 73.24791618 80.48938835 69.47334082 75.25 65.6875 C74.49275635 65.14037354 73.7355127 64.59324707 72.95532227 64.02954102 C69.11834037 61.25629293 65.28298829 58.480812 61.44921875 55.703125 C54.1618988 50.42667057 46.85848374 45.17686559 39.5 40 C4.05940205 15.05940205 4.05940205 15.05940205 0 11 C0 7.37 0 3.74 0 0 Z " fill="#080042" transform="translate(0,721)"/>
  <path d="M0 0 C1.15634248 -0.00224729 2.31268495 -0.00449459 3.50406811 -0.00680998 C5.42227411 -0.00286946 5.42227411 -0.00286946 7.37923175 0.00115067 C8.75048177 0.00041145 10.12173162 -0.00076668 11.49298093 -0.00234583 C15.28633006 -0.00542792 19.07965258 -0.00222894 22.87299974 0.0019323 C26.99026034 0.00535523 31.10751812 0.00299786 35.22477925 0.00135481 C42.44907385 -0.00072311 49.67336023 0.00093197 56.89765388 0.00499302 C67.64000366 0.01101498 78.38234824 0.01133004 89.1246994 0.01045103 C107.19289362 0.00913544 125.26108418 0.01248495 143.32927734 0.01846844 C161.22603782 0.02438 179.12279679 0.02823328 197.01955825 0.02932125 C198.13120215 0.02938999 199.24284605 0.02945873 200.38817613 0.02952956 C206.03336527 0.02986788 211.67855441 0.03016926 217.32374356 0.03045643 C257.33671094 0.03255835 297.34967633 0.03929992 337.36264259 0.04875904 C376.24122321 0.05793941 415.11980329 0.06502501 453.99838477 0.06926686 C455.79514217 0.06946414 455.79514217 0.06946414 457.62819769 0.06966542 C469.65708557 0.07098391 481.68597345 0.07225973 493.71486133 0.07350428 C518.22036466 0.07604068 542.72586795 0.07886193 567.23137122 0.08185536 C568.35816147 0.08199265 569.48495172 0.08212994 570.64588712 0.08227139 C645.92557792 0.09147625 721.20526762 0.10732193 796.48495704 0.1241985 C796.57826538 2.20708565 796.64493833 4.29117794 796.70028907 6.3754192 C796.76024558 8.11599346 796.76024558 8.11599346 796.82141334 9.89173084 C796.43965602 13.55942313 795.7304226 14.67427059 793.03964454 17.10466725 C791.51040192 18.21708592 789.94797762 19.28493226 788.35995704 20.3116985 C787.53681007 20.89499928 786.71366309 21.47830006 785.86557227 22.07927662 C783.42867387 23.79793875 780.95989076 25.46102243 778.48495704 27.1241985 C776.70660013 28.38528098 774.94204277 29.66368095 773.17807227 30.94475514 C771.51373412 32.14859069 769.83686138 33.33300482 768.15683204 34.5148235 C763.82659812 37.57511009 759.56265495 40.72419506 755.29745704 43.8741985 C754.49445167 44.46716725 753.6914463 45.060136 752.86410743 45.6710735 C751.22271734 46.88369963 749.58152401 48.09659216 747.94052345 49.30974537 C743.95846506 52.25214524 739.97156936 55.18797329 735.98495704 58.1241985 C731.22112977 61.63307065 726.45823903 65.14317654 721.69980079 68.65935475 C713.25155447 74.89890922 704.7748912 81.0948407 696.25204688 87.23210865 C688.41618218 92.88137932 680.64502849 98.61732742 672.87607032 104.35808522 C668.91504542 107.28375952 664.94979987 110.20370155 660.98495704 113.1241985 C659.40160325 114.2908374 657.81826992 115.45750407 656.23495704 116.6241985 C627.73495704 137.6241985 599.23495704 158.6241985 570.73495704 179.6241985 C569.95112647 180.20177906 569.16729591 180.77935963 568.3597129 181.37444264 C566.77727519 182.54040656 565.19475573 183.70625953 563.6121543 184.87200123 C559.63943817 187.79851293 555.6681871 190.72697384 551.69980079 193.65935475 C543.25616786 199.89550194 534.7861592 206.09096451 526.26523048 212.22112232 C521.52662785 215.63497106 516.81691399 219.08535101 512.12289649 222.56023365 C479.91648825 246.40138272 479.91648825 246.40138272 461.38136512 246.44106251 C460.38298737 246.45090699 459.38460963 246.46075148 458.35597801 246.47089428 C454.99427079 246.50139852 451.63265048 246.51772229 448.27084571 246.53386647 C445.82049308 246.55243936 443.3701458 246.57172951 440.91980392 246.59167057 C434.84509911 246.63830573 428.77040568 246.67490106 422.69561027 246.70658275 C417.60932131 246.73324649 412.52307179 246.76409308 407.43682128 246.79725987 C326.3445874 247.32201636 245.24975747 247.27691308 164.15621798 247.25366142 C147.96004982 247.24910306 131.76388878 247.25004223 115.56772071 247.25456959 C96.44673123 247.25991248 77.32574591 247.26204064 58.20475578 247.25895733 C56.1765303 247.25863891 54.14830482 247.25832454 52.12007934 247.25801426 C51.12348847 247.25785999 50.12689761 247.25770571 49.10010702 247.25754676 C42.11836137 247.25668743 35.13661842 247.25812991 28.15487319 247.26049381 C19.73558567 247.26328459 11.31630748 247.26256512 2.89702103 247.25721307 C-1.38367549 247.25458036 -5.66435638 247.25356512 -9.9450528 247.25686222 C-13.85351847 247.25982819 -17.76195386 247.25822782 -21.67041675 247.25288467 C-23.08637441 247.25176295 -24.50233459 247.2523463 -25.91829064 247.25476046 C-27.8334218 247.25777776 -29.74856008 247.25410123 -31.66368932 247.25003964 C-32.72907341 247.24987728 -33.7944575 247.24971493 -34.89212596 247.24954766 C-37.51504296 247.1241985 -37.51504296 247.1241985 -40.51504296 246.1241985 C-35.0633028 194.59162008 -29.29746944 143.09445455 -23.44783831 91.60575831 C-22.76950544 85.63296204 -22.09398448 79.65985182 -21.41961449 73.68660694 C-20.58585272 66.3024104 -19.74804858 58.91868541 -18.90522987 51.53551692 C-18.4677691 47.70268638 -18.03199028 43.86968443 -17.60069054 40.03615528 C-17.20039591 36.47907086 -16.7949941 32.92260544 -16.3856588 29.36655039 C-16.1677575 27.46237524 -15.95512749 25.55759915 -15.74269742 23.65280586 C-13.73499857 6.34415411 -13.73499857 6.34415411 -8.51504296 1.1241985 C-5.40224581 0.08659945 -3.26425724 -0.00050901 0 0 Z " fill="#080042" transform="translate(2403.5150429606438,719.8758015036583)"/>
  <path d="M0 0 C57.81989405 -0.02286375 115.63978772 -0.04049891 173.45968538 -0.05106533 C180.27805524 -0.05231272 187.09642508 -0.05360927 193.91479492 -0.05493164 C194.59332275 -0.0550624 195.27185057 -0.05519316 195.97093984 -0.05532788 C217.98377292 -0.05959303 239.99660343 -0.06710717 262.00943496 -0.07629722 C285.26127315 -0.08598697 308.51310948 -0.09199361 331.76494986 -0.09408849 C345.702441 -0.09546406 359.6399248 -0.09981644 373.57741369 -0.10791647 C383.12080456 -0.11318195 392.66419161 -0.11480475 402.20758384 -0.11350138 C407.72251343 -0.11285769 413.23743015 -0.113879 418.75235748 -0.11920547 C423.79235185 -0.12403801 428.83232457 -0.12433962 433.87231988 -0.12089889 C435.70408912 -0.12047306 437.53585966 -0.12177002 439.3676263 -0.12488318 C441.84066671 -0.12884477 444.31362698 -0.1267649 446.78666592 -0.12304783 C447.51241173 -0.12567484 448.23815755 -0.12830186 448.98589566 -0.13100848 C453.8858542 -0.1141458 453.8858542 -0.1141458 455 1 C455.43305257 4.09267714 455.8065159 7.17465367 456.14527893 10.27818298 C456.25638927 11.26428497 456.36749961 12.25038696 456.48197693 13.26637083 C456.85620719 16.5976154 457.22409784 19.92953019 457.59204102 23.26147461 C457.85783258 25.63949569 458.12399514 28.01747534 458.39050293 30.39541626 C459.04020359 36.20222728 459.68573285 42.009493 460.32920618 47.81699657 C460.85259389 52.54006899 461.37760838 57.26295788 461.90379143 61.98571968 C461.97859069 62.65710974 462.05338995 63.32849981 462.13045586 64.02023502 C462.28241084 65.38412745 462.43436832 66.74801961 462.58632826 68.11191148 C464.01320666 80.92061198 465.43451684 93.72992582 466.85405701 106.53944135 C468.15167378 118.24733116 469.45570488 129.95449571 470.76288152 141.66132169 C472.10505436 153.68200753 473.4431618 165.7031393 474.77678055 177.72477728 C474.92785566 179.08649835 475.0789369 180.44821873 475.23002434 181.80993843 C475.34152832 182.81490346 475.34152832 182.81490346 475.45528491 183.84017081 C475.97818229 188.55056786 476.50370038 193.26066823 477.03027534 197.97065544 C477.74026224 204.32378625 478.44489535 210.6774887 479.14545441 217.0316658 C479.40316296 219.36104922 479.66273214 221.69022767 479.92432213 224.01917839 C480.28187709 227.20523421 480.63261804 230.39197104 480.98170471 233.57896423 C481.13826494 234.95249909 481.13826494 234.95249909 481.297988 236.35378212 C481.93513508 242.25752129 482.11669616 248.06360868 482 254 C465.38781251 254.13965307 448.7758456 254.24614883 432.16321182 254.31087303 C424.44861151 254.34173251 416.73438184 254.38375988 409.02001953 254.45263672 C402.29144805 254.51268309 395.56314515 254.55120656 388.83431315 254.56453097 C385.27554848 254.57231259 381.71755177 254.59043118 378.15903473 254.63438034 C374.17371941 254.68319549 370.18971536 254.68392388 366.20410156 254.68115234 C365.0409996 254.702724 363.87789764 254.72429565 362.67955017 254.746521 C351.06635175 254.65959514 342.31456785 249.54692415 333.4375 242.4375 C327.59311117 237.9058157 321.63324525 233.63218341 315.5 229.5 C308.82726884 224.99021891 302.32538464 220.31932702 295.91357422 215.44702148 C290.52796312 211.36455389 285.03565885 207.45329536 279.50219727 203.57446289 C274.24079296 199.88409313 269.01761609 196.14431725 263.8125 192.375 C258.55319847 188.56690723 253.28842504 184.76756073 248 181 C242.71157367 177.23243835 237.44692136 173.43292858 232.1875 169.625 C226.31868597 165.37757019 220.42575593 161.16760248 214.5 157 C206.37807304 151.28641731 198.32506235 145.48052385 190.28369141 139.65429688 C186.44120888 136.87081798 182.5959003 134.09125401 178.75 131.3125 C177.99726807 130.76859619 177.24453613 130.22469238 176.46899414 129.66430664 C171.43370447 126.02853373 166.38494014 122.41223916 161.32714844 118.80786133 C155.75764846 114.83523893 150.21536402 110.82520452 144.671875 106.81640625 C140.12477889 103.52981467 135.56905522 100.25598561 131 97 C124.87106573 92.63241834 118.77027479 88.22649066 112.671875 83.81640625 C108.12477889 80.52981467 103.56905522 77.25598561 99 74 C92.87106573 69.63241834 86.77027479 65.22649066 80.671875 60.81640625 C76.12477837 57.5298143 71.56900832 54.2560519 67 51 C61.7363308 47.24799175 56.48938776 43.47334039 51.25 39.6875 C50.49275635 39.14037354 49.7355127 38.59324707 48.95532227 38.02954102 C45.11834037 35.25629293 41.28298829 32.480812 37.44921875 29.703125 C35.94533967 28.61454579 34.44143356 27.52600394 32.9375 26.4375 C32.20072021 25.90326416 31.46394043 25.36902832 30.70483398 24.81860352 C26.94004068 22.09575915 23.15744592 19.40448921 19.3359375 16.76171875 C18.57676025 16.23457275 17.81758301 15.70742676 17.03540039 15.16430664 C15.6092409 14.17672448 14.1790616 13.19490781 12.74389648 12.22045898 C8.02134473 8.94614865 3.80051911 5.32847155 0 1 C0 0.67 0 0.34 0 0 Z " fill="#080042" transform="translate(408,1023)"/>
  <path d="M0 0 C146.85 0 293.7 0 445 0 C436.29061718 8.70938282 426.91816809 16.23059569 416.84765625 23.28515625 C412.45011339 26.36907265 408.13155021 29.55748668 403.8125 32.75 C403.00989746 33.34272705 402.20729492 33.9354541 401.38037109 34.54614258 C399.73854694 35.75897608 398.09694679 36.97211287 396.45556641 38.18554688 C392.47350788 41.12794685 388.48656062 44.0637044 384.5 47 C382.91664211 48.16663334 381.3333088 49.33330004 379.75 50.5 C344.91666667 76.16666667 310.08333333 101.83333333 275.25 127.5 C274.46616943 128.07758057 273.68233887 128.65516113 272.87475586 129.25024414 C271.29231815 130.41620806 269.70979869 131.58206104 268.12719727 132.74780273 C264.15448113 135.67431443 260.18323006 138.60277534 256.21484375 141.53515625 C247.76659743 147.77471072 239.28993416 153.9706422 230.76708984 160.10791016 C222.12750396 166.33662403 213.5651506 172.66954014 205 179 C191.98383151 188.62018486 178.90758268 198.15017155 165.77050781 207.60449219 C163.5338987 209.21465499 161.29802169 210.82582782 159.0625 212.4375 C158.32757324 212.96690186 157.59264648 213.49630371 156.83544922 214.04174805 C152.0402103 217.50369956 147.28088499 221.01099695 142.53466797 224.53979492 C126.6630711 236.32201827 112.45496436 245.83781708 92.12890625 246.6171875 C91.24674942 246.65472137 90.36459259 246.69225525 89.45570374 246.73092651 C75.42099302 247.25111463 61.36577923 247.15228458 47.32363892 247.12857056 C44.9179065 247.12497068 42.5121801 247.12337562 40.10644531 247.12231445 C17.39215913 247.10984626 -5.30190987 246.93986714 -28 246 C-27.36898 233.02773774 -25.99792412 220.18426093 -24.515625 207.28564453 C-24.2606091 205.04029088 -24.00593952 202.79489788 -23.75158691 200.54946899 C-23.06529603 194.50045365 -22.37392719 188.45202906 -21.68138123 182.40372705 C-20.95600756 176.0628806 -20.23467125 169.72157462 -19.51269531 163.38034058 C-18.22437136 152.07101666 -16.9320011 140.76216057 -15.63797808 129.45348774 C-14.46451829 119.1974467 -13.29520888 108.94093935 -12.12890625 98.68408203 C-10.62713765 85.47704934 -9.12148178 72.27046615 -7.6126709 59.06423569 C-7.03707275 54.02535114 -6.46303838 48.98629203 -5.89025879 43.94708633 C-5.21737003 38.02867647 -4.54077325 32.11070228 -3.86125183 26.19305038 C-3.61200573 24.01707664 -3.36406941 21.84095243 -3.11750793 19.66467285 C-2.78204354 16.70556853 -2.44193618 13.74703498 -2.10058594 10.78860474 C-2.00301624 9.91820812 -1.90544655 9.04781151 -1.8049202 8.15103924 C-1.11415331 2.22830662 -1.11415331 2.22830662 0 0 Z " fill="#080042" transform="translate(2357,1024)"/>
  <path d="M0 0 C20.13 0 40.26 0 61 0 C59.70426824 3.88719529 57.37310319 5.10752133 54.125 7.3125 C52.83877904 8.20810828 51.55368226 9.10533253 50.26953125 10.00390625 C49.57811035 10.48617676 48.88668945 10.96844727 48.17431641 11.46533203 C44.34429588 14.16862296 40.58072424 16.96153732 36.8125 19.75 C35.19270978 20.94661654 33.5729181 22.1432311 31.953125 23.33984375 C31.13908203 23.9416748 30.32503906 24.54350586 29.48632812 25.16357422 C26.98776481 27.00903703 24.48655515 28.8508509 21.984375 30.69140625 C20.34374064 31.89842478 18.70311549 33.10545583 17.0625 34.3125 C15.87998657 35.18237549 15.87998657 35.18237549 14.67358398 36.06982422 C9.09921912 40.1758914 3.56209773 44.32804189 -1.9453125 48.5234375 C-4 50 -4 50 -5 50 C-4.41855121 38.60010928 -3.32606304 27.32807537 -1.9375 16 C-1.298125 10.72 -0.65875 5.44 0 0 Z " fill="#080042" transform="translate(2321,1333)"/>
  <path d="M0 0 C5.97734898 -0.07448767 11.95442418 -0.1287615 17.93212891 -0.16479492 C19.9631013 -0.17982599 21.99404154 -0.20025647 24.02490234 -0.22631836 C26.95418259 -0.26295232 29.88303144 -0.27978351 32.8125 -0.29296875 C33.71178223 -0.30845261 34.61106445 -0.32393646 35.53759766 -0.33988953 C42.26481848 -0.34166142 47.81744748 0.6549613 53.375 4.75 C57.60141639 10.60196115 57.28186889 17.3937702 57.1875 24.3125 C57.18685547 25.19873047 57.18621094 26.08496094 57.18554688 26.99804688 C57.14583275 33.04783216 56.70347821 38.99250656 56 45 C49.44704806 41.0340852 43.28065467 36.76906064 37.25439453 32.04101562 C32.8298389 28.58983651 28.28780796 25.33722548 23.6875 22.125 C15.31244821 16.2732561 7.13723274 10.17684962 -1 4 C-0.67 2.68 -0.34 1.36 0 0 Z " fill="#080042" transform="translate(843,1333)"/>
</svg>